<svg width="250px" height="60
px" xmlns="http://www.w3.org/2000/svg" viewBox="32.29998779296875 25.9800048828124943 600 146.039990234375" style="background: none;" preserveAspectRatio="xMidYMid"><defs><linearGradient id="editing-gradient-gradient" x1="0" x2="1" y1="0.5" y2="0.5" gradientUnits="objectBoundingBox"><stop offset="0" stop-color="#f0f"></stop><stop offset="1" stop-color="#0ff"></stop></linearGradient></defs><g><g transform="translate(77.13205337524414, 111.38000106811523)"><path d="M35.33-46.14L35.33-46.14L35.33-46.14Q41.34-46.14 41.34-41.47L41.34-41.47L41.34-41.47Q41.34-37.18 35.17-29.06L35.17-29.06L35.17-29.06Q28.99-20.93 20.86-13.18L20.86-13.18L20.86-13.18Q11.26-4.03 3.97 0.77L3.97 0.77L3.97 0.77Q2.88 1.47 0.10 2.69L0.10 2.69L0.10 2.69Q-2.69 3.90-4.74 3.90L-4.74 3.90L-4.74 3.90Q-5.82 3.90-9.02 2.18L-9.02 2.18L-9.02 2.18Q-9.66 1.73-9.66 1.22L-9.66 1.22L-9.66 1.22Q-9.66 0.38-7.36 0.13L-7.36 0.13L-7.36 0.13Q-4.10-0.19 3.71-5.98L3.71-5.98L3.71-5.98Q11.52-11.78 19.26-18.88L19.26-18.88L19.26-18.88Q27.01-25.98 32.96-32.70L32.96-32.70L32.96-32.70Q38.91-39.42 38.91-41.54L38.91-41.54L38.91-41.54Q38.91-42.05 38.40-42.05L38.40-42.05L38.40-42.05Q35.20-42.05 27.52-37.76L27.52-37.76L27.52-37.76Q19.84-33.47 13.18-27.74L13.18-27.74L13.18-27.74Q6.53-22.02 6.53-18.69L6.53-18.69L6.53-18.69Q6.53-18.56 6.72-18.56L6.72-18.56L6.72-18.56Q8.32-18.56 13.66-22.53L13.66-22.53L13.66-22.53Q19.01-26.50 21.38-29.18L21.38-29.18L21.38-29.18Q22.02-29.82 22.40-29.82L22.40-29.82L22.40-29.82Q22.91-29.76 22.91-29.38L22.91-29.38L22.91-29.38Q22.91-28.99 21.98-27.36L21.98-27.36L21.98-27.36Q21.06-25.73 19.36-23.49L19.36-23.49L19.36-23.49Q17.66-21.25 15.62-19.10L15.62-19.10L15.62-19.10Q13.57-16.96 11.01-15.46L11.01-15.46L11.01-15.46Q8.45-13.95 6.24-13.95L6.24-13.95L6.24-13.95Q4.03-13.95 3.07-15.74L3.07-15.74L3.07-15.74Q2.11-17.54 2.11-19.39L2.11-19.39L2.11-19.39Q2.11-23.74 5.86-28.70L5.86-28.70L5.86-28.70Q9.60-33.66 14.85-37.41L14.85-37.41L14.85-37.41Q20.10-41.15 25.79-43.65L25.79-43.65L25.79-43.65Q31.49-46.14 35.33-46.14ZM50.82-3.97L50.82-3.97L50.82-3.97Q50.82-3.39 51.55-3.39L51.55-3.39L51.55-3.39Q52.29-3.39 54.24-4.29L54.24-4.29L54.24-4.29Q56.19-5.18 58.91-7.04L58.91-7.04L58.91-7.04Q61.63-8.90 66.14-12.32L66.14-12.32L66.14-12.32Q70.66-15.74 74.05-18.11L74.05-18.11L74.05-18.11Q74.62-17.66 74.62-17.02L74.62-17.02L74.62-17.02Q74.62-16.38 74.05-15.87L74.05-15.87L74.05-15.87Q72-13.89 68.86-10.91L68.86-10.91L68.86-10.91Q65.73-7.94 59.30-2.94L59.30-2.94L59.30-2.94Q52.86 2.05 50.30 2.05L50.30 2.05L50.30 2.05Q45.38 2.05 45.38-3.20L45.38-3.20L45.38-3.20Q45.38-5.18 46.91-7.36L46.91-7.36L49.66-11.14L49.66-11.14Q50.05-11.71 50.05-11.81L50.05-11.81L50.05-11.81Q50.05-11.90 49.66-11.58L49.66-11.58L49.66-11.58Q38.53-2.30 35.46-0.70L35.46-0.70L35.46-0.70Q34.94-0.38 34.18-0.38L34.18-0.38L34.18-0.38Q32.06-0.38 32.06-2.30L32.06-2.30L32.06-2.30Q32.06-2.94 32.38-3.46L32.38-3.46L32.38-3.46Q36.10-8.83 38.08-10.69L38.08-10.69L39.17-11.78L39.17-11.78Q39.30-11.90 39.30-12.03L39.30-12.03L39.30-12.03Q39.30-12.16 39.17-12.16L39.17-12.16L39.17-12.16Q39.04-12.16 38.78-11.90L38.78-11.90L31.94-6.53L31.94-6.53Q25.98-1.86 25.44-1.57L25.44-1.57L25.44-1.57Q24.90-1.28 24.45-1.28L24.45-1.28L24.45-1.28Q24-1.28 23.04-1.82L23.04-1.82L23.04-1.82Q22.08-2.37 22.08-3.07L22.08-3.07L22.08-3.07Q22.08-3.26 22.27-3.58L22.27-3.58L22.27-3.58Q28.54-10.50 31.42-14.98L31.42-14.98L31.42-14.98Q32.64-16.90 33.57-18.40L33.57-18.40L33.57-18.40Q34.50-19.90 35.04-20.54L35.04-20.54L35.04-20.54Q35.58-21.18 36.22-21.18L36.22-21.18L36.22-21.18Q36.86-21.18 37.66-20.45L37.66-20.45L37.66-20.45Q38.46-19.71 38.46-18.94L38.46-18.94L38.46-18.94Q38.46-18.18 37.95-17.34L37.95-17.34L37.95-17.34Q35.78-13.44 34.56-12.29L34.56-12.29L34.56-12.29Q34.37-12.10 34.37-11.94L34.37-11.94L34.37-11.94Q34.37-11.78 34.50-11.78L34.50-11.78L34.69-11.84L43.26-17.79L43.26-17.79Q46.53-20.03 47.17-20.03L47.17-20.03L47.17-20.03Q47.81-20.03 48.54-19.62L48.54-19.62L48.54-19.62Q49.28-19.20 49.28-18.69L49.28-18.69L49.28-18.69Q49.28-18.18 48.96-17.66L48.96-17.66L44.80-11.97L44.80-11.97Q43.97-10.94 43.97-10.82L43.97-10.82L43.97-10.82Q43.97-10.69 44.03-10.69L44.03-10.69L44.35-10.88L44.35-10.88Q52.35-16.32 55.20-18.43L55.20-18.43L55.20-18.43Q58.05-20.54 58.62-21.12L58.62-21.12L58.62-21.12Q59.52-21.76 60.13-21.76L60.13-21.76L60.13-21.76Q60.74-21.76 60.93-21.63L60.93-21.63L62.34-20.54L62.34-20.54Q62.98-20.22 62.98-19.71L62.98-19.71L62.98-19.71Q62.98-19.20 62.72-18.88L62.72-18.88L62.72-18.88Q58.94-14.78 56.67-12.35L56.67-12.35L56.67-12.35Q54.40-9.92 53.38-8.77L53.38-8.77L53.38-8.77Q51.71-6.78 51.33-5.57L51.33-5.57L51.33-5.57Q50.82-4.67 50.82-3.97ZM74.94-2.69L74.94-2.69L75.46-6.78L75.46-6.78Q75.46-6.98 75.36-6.98L75.36-6.98L75.36-6.98Q75.26-6.98 75.01-6.72L75.01-6.72L75.01-6.72Q74.18-5.82 72.90-4.51L72.90-4.51L72.90-4.51Q71.62-3.20 68.51-0.99L68.51-0.99L68.51-0.99Q65.41 1.22 63.49 1.22L63.49 1.22L63.49 1.22Q63.17 1.15 62.69 0.99L62.69 0.99L62.69 0.99Q62.21 0.83 61.44-0.06L61.44-0.06L61.44-0.06Q60.67-0.96 60.67-2.62L60.67-2.62L60.67-2.62Q60.67-4.29 63.20-7.71L63.20-7.71L63.20-7.71Q65.73-11.14 69.25-14.43L69.25-14.43L69.25-14.43Q72.77-17.73 77.09-20.16L77.09-20.16L77.09-20.16Q81.41-22.59 84.61-22.59L84.61-22.59L84.61-22.59Q85.82-22.53 86.53-20.86L86.53-20.86L86.53-20.86Q87.17-21.50 87.68-21.50L87.68-21.50L87.68-21.50Q88.19-21.50 88.90-20.74L88.90-20.74L88.90-20.74Q89.28-20.67 89.66-20.32L89.66-20.32L89.66-20.32Q90.05-19.97 90.05-19.33L90.05-19.33L90.05-19.33Q90.05-18.69 89.15-17.92L89.15-17.92L89.15-17.92Q87.81-16.26 86.02-14.14L86.02-14.14L86.02-14.14Q84.22-12.03 83.46-11.10L83.46-11.10L83.46-11.10Q82.69-10.18 81.86-9.02L81.86-9.02L81.86-9.02Q80.45-7.04 80.32-5.82L80.32-5.82L80.32-5.82Q86.85-8.96 100.86-19.33L100.86-19.33L100.86-19.33Q101.44-18.88 101.44-18.24L101.44-18.24L101.44-18.24Q101.44-17.60 100.93-17.15L100.93-17.15L100.93-17.15Q100.42-16.70 99.68-16.06L99.68-16.06L99.68-16.06Q98.94-15.42 96.77-13.57L96.77-13.57L96.77-13.57Q94.59-11.71 92.58-10.02L92.58-10.02L92.58-10.02Q90.56-8.32 87.97-6.24L87.97-6.24L87.97-6.24Q85.38-4.16 83.33-2.69L83.33-2.69L83.33-2.69Q78.40 0.83 77.18 0.83L77.18 0.83L77.18 0.83Q75.97 0.83 75.46 0.06L75.46 0.06L75.46 0.06Q74.94-0.70 74.94-2.69ZM68.42-5.38L68.42-5.38L68.42-5.38Q69.18-5.38 73.12-8.51L73.12-8.51L73.12-8.51Q77.06-11.65 80.58-14.78L80.58-14.78L84.16-17.92L84.16-17.92Q84.42-18.18 84.42-18.27L84.42-18.27L84.42-18.27Q84.42-18.37 84.22-18.37L84.22-18.37L84.22-18.37Q81.79-18.37 77.89-15.58L77.89-15.58L77.89-15.58Q73.98-12.80 71.14-9.70L71.14-9.70L71.14-9.70Q68.29-6.59 68.29-5.50L68.29-5.50L68.29-5.50Q68.29-5.38 68.42-5.38ZM112.54-18.72L112.54-18.72L112.54-18.72Q113.47-17.98 113.47-17.38L113.47-17.38L113.47-17.38Q113.47-16.77 112.93-16.26L112.93-16.26L112.93-16.26Q112.38-15.74 106.94-8.42L106.94-8.42L106.94-8.42Q101.50-1.09 99.62 1.66L99.62 1.66L99.62 1.66Q97.73 4.42 96.96 5.66L96.96 5.66L96.96 5.66Q96.19 6.91 93.79 10.11L93.79 10.11L93.79 10.11Q91.39 13.31 88.96 15.90L88.96 15.90L88.96 15.90Q86.53 18.50 83.10 20.90L83.10 20.90L83.10 20.90Q79.68 23.30 76.54 23.94L76.54 23.94L76.54 23.94Q75.20 23.94 73.86 23.36L73.86 23.36L73.86 23.36Q71.30 22.27 71.30 19.33L71.30 19.33L71.30 19.33Q71.30 15.62 78.24 10.59L78.24 10.59L78.24 10.59Q85.18 5.57 88.58 5.57L88.58 5.57L88.58 5.57Q89.09 5.57 89.09 5.76L89.09 5.76L89.09 5.76Q89.09 5.95 88.45 6.40L88.45 6.40L88.45 6.40Q82.94 10.18 78.43 14.56L78.43 14.56L78.43 14.56Q73.92 18.94 73.92 20.80L73.92 20.80L73.92 20.80Q73.92 21.06 74.30 21.06L74.30 21.06L74.30 21.06Q74.69 21.06 75.97 20.22L75.97 20.22L75.97 20.22Q79.04 18.05 84.67 12.29L84.67 12.29L84.67 12.29Q90.88 5.38 92.29 3.46L92.29 3.46L92.29 3.46Q94.78 0.06 98.24-3.58L98.24-3.58L99.52-4.93L99.52-4.93Q99.58-5.06 99.71-5.18L99.71-5.18L99.71-5.18Q99.84-5.31 100.03-5.63L100.03-5.63L100.03-5.63Q100.54-6.46 100.48-6.46L100.48-6.46L100.48-6.46Q100.29-6.46 99.65-5.82L99.65-5.82L99.65-5.82Q99.01-5.18 97.82-4.06L97.82-4.06L97.82-4.06Q96.64-2.94 93.82-1.06L93.82-1.06L93.82-1.06Q91.01 0.83 89.28 0.83L89.28 0.83L89.28 0.83Q87.55 0.83 86.59-0.32L86.59-0.32L86.59-0.32Q85.63-1.47 85.63-2.78L85.63-2.78L85.63-2.78Q85.63-4.10 87.30-6.72L87.30-6.72L87.30-6.72Q88.96-9.34 91.65-12.42L91.65-12.42L91.65-12.42Q94.34-15.49 98.59-18.11L98.59-18.11L98.59-18.11Q102.85-20.74 107.33-21.25L107.33-21.25L107.33-21.25Q109.95-20.67 110.72-19.39L110.72-19.39L110.72-19.39Q110.85-19.46 111.23-19.46L111.23-19.46L111.23-19.46Q111.62-19.46 112.54-18.72ZM92.67-5.18L92.67-5.18L92.67-5.18Q94.34-5.31 98.46-8.26L98.46-8.26L98.46-8.26Q102.59-11.20 105.95-14.14L105.95-14.14L105.95-14.14Q109.31-17.09 109.31-17.54L109.31-17.54L109.31-17.54Q109.31-17.66 109.06-17.66L109.06-17.66L109.06-17.66Q105.73-16.96 101.63-14.14L101.63-14.14L101.63-14.14Q97.54-11.33 94.98-8.70L94.98-8.70L94.98-8.70Q92.42-6.08 92.42-5.38L92.42-5.38L92.42-5.38Q92.42-5.18 92.67-5.18ZM128.83-19.33L128.83-19.33L128.83-19.33Q127.17-19.33 123.20-15.90L123.20-15.90L123.20-15.90Q119.23-12.48 119.23-11.71L119.23-11.71L119.23-11.71Q119.23-11.58 119.42-11.58L119.42-11.58L119.42-11.58Q120.83-11.58 125.02-14.72L125.02-14.72L125.02-14.72Q129.22-17.86 129.22-19.01L129.22-19.01L129.22-19.01Q129.22-19.33 128.83-19.33ZM115.20 1.15L115.20 1.15L115.20 1.15Q110.27 1.15 110.27-4.86L110.27-4.86L110.27-4.86Q110.27-8.64 113.57-12.90L113.57-12.90L113.57-12.90Q116.86-17.15 121.34-19.87L121.34-19.87L121.34-19.87Q125.82-22.59 129.28-22.59L129.28-22.59L129.28-22.59Q130.82-22.59 132.13-21.38L132.13-21.38L132.13-21.38Q133.44-20.16 133.44-19.01L133.44-19.01L133.44-19.01Q133.44-16.90 130.43-14.24L130.43-14.24L130.43-14.24Q127.42-11.58 124.13-9.95L124.13-9.95L124.13-9.95Q120.83-8.32 119.78-8.32L119.78-8.32L119.78-8.32Q118.72-8.32 118.21-9.28L118.21-9.28L118.21-9.28Q117.95-9.47 117.50-9.47L117.50-9.47L117.50-9.47Q117.06-9.47 116.03-7.78L116.03-7.78L116.03-7.78Q115.01-6.08 115.01-5.02L115.01-5.02L115.01-5.02Q115.01-3.97 115.78-3.71L115.78-3.71L115.78-3.71Q120.64-3.71 126.34-6.56L126.34-6.56L126.34-6.56Q132.03-9.41 142.08-16.58L142.08-16.58L142.08-16.58Q142.78-17.09 144.22-18.11L144.22-18.11L144.22-18.11Q145.66-19.14 145.92-19.33L145.92-19.33L145.92-19.33Q146.50-18.88 146.50-18.24L146.50-18.24L146.50-18.24Q146.50-17.60 145.92-17.09L145.92-17.09L145.92-17.09Q142.72-13.89 137.63-9.92L137.63-9.92L137.63-9.92Q132.54-5.95 125.95-2.40L125.95-2.40L125.95-2.40Q119.36 1.15 115.20 1.15ZM141.22-4.67L141.22-4.67L141.22-4.67Q143.42-4.67 145.31-7.39L145.31-7.39L145.31-7.39Q147.20-10.11 147.97-12.90L147.97-12.90L147.97-12.90Q148.74-15.68 148.74-17.34L148.74-17.34L148.74-17.34Q148.74-17.79 148.06-17.79L148.06-17.79L148.06-17.79Q147.39-17.79 146.50-17.09L146.50-17.09L138.11-10.62L138.11-10.62Q137.22-10.11 136.06-10.11L136.06-10.11L136.06-10.11Q134.91-10.11 134.91-10.94L134.91-10.94L134.91-10.94Q134.91-11.52 135.07-11.71L135.07-11.71L135.07-11.71Q135.23-11.90 136-12.35L136-12.35L136-12.35Q140.74-15.62 148.93-22.98L148.93-22.98L148.93-22.98Q149.89-24.26 150.66-24.26L150.66-24.26L150.66-24.26Q151.42-24.26 153.22-23.78L153.22-23.78L153.22-23.78Q155.01-23.30 155.01-22.66L155.01-22.66L155.01-22.66Q155.01-18.82 154.30-15.68L154.30-15.68L154.30-15.68Q153.60-12.54 152.86-10.91L152.86-10.91L152.86-10.91Q152.13-9.28 152.13-9.15L152.13-9.15L152.13-9.15Q152.13-9.02 152.26-9.02L152.26-9.02L152.26-9.02Q152.38-9.02 152.77-9.22L152.77-9.22L152.77-9.22Q157.57-11.65 164.99-17.15L164.99-17.15L166.53-18.30L166.53-18.30Q167.10-17.86 167.10-17.22L167.10-17.22L167.10-17.22Q167.10-16.58 166.53-16.06L166.53-16.06L166.53-16.06Q166.40-16.06 163.23-13.38L163.23-13.38L163.23-13.38Q160.06-10.69 156.19-7.52L156.19-7.52L156.19-7.52Q152.32-4.35 147.90-1.73L147.90-1.73L147.90-1.73Q143.49 0.90 141.06 0.90L141.06 0.90L141.06 0.90Q135.04 0.90 135.04-6.34L135.04-6.34L135.04-6.34Q135.04-6.91 135.52-7.39L135.52-7.39L135.52-7.39Q136-7.87 136.77-7.87L136.77-7.87L136.77-7.87Q136.77-7.55 137.12-6.88L137.12-6.88L137.12-6.88Q137.47-6.21 137.86-5.76L137.86-5.76L137.86-5.76Q139.01-4.67 141.22-4.67ZM219.07-35.58L219.07-35.58L219.07-35.58Q220.99-34.94 221.18-34.30L221.18-34.30L221.25-34.05L221.25-34.05Q221.25-32.70 218.56-30.27L218.56-30.27L218.56-30.27Q207.62-17.98 203.01-11.26L203.01-11.26L203.01-11.26Q201.66-9.34 199.23-5.66L199.23-5.66L199.23-5.66Q196.80-1.98 195.30 0.22L195.30 0.22L195.30 0.22Q193.79 2.43 191.33 5.79L191.33 5.79L191.33 5.79Q188.86 9.15 186.98 11.33L186.98 11.33L186.98 11.33Q185.09 13.50 182.37 16.19L182.37 16.19L182.37 16.19Q179.65 18.88 177.15 20.67L177.15 20.67L177.15 20.67Q171.52 24.70 165.06 26.62L165.06 26.62L165.06 26.62Q163.39 26.62 161.89 25.82L161.89 25.82L161.89 25.82Q160.38 25.02 160.32 23.55L160.32 23.55L160.32 23.55Q160.38 20.10 165.70 15.01L165.70 15.01L165.70 15.01Q171.01 9.92 179.97 7.23L179.97 7.23L179.97 7.23Q181.25 6.91 181.76 6.27L181.76 6.27L200.06-15.55L201.02-16.83L201.02-16.83Q201.15-17.09 201.15-17.18L201.15-17.18L201.15-17.18Q201.15-17.28 201.06-17.28L201.06-17.28L201.06-17.28Q200.96-17.28 198.21-14.50L198.21-14.50L198.21-14.50Q195.46-11.71 193.44-9.54L193.44-9.54L193.44-9.54Q191.42-7.36 188.16-4.32L188.16-4.32L188.16-4.32Q184.90-1.28 180.19 1.70L180.19 1.70L180.19 1.70Q175.49 4.67 172.29 4.67L172.29 4.67L172.29 4.67Q168.06 4.67 167.04-0.90L167.04-0.90L167.04-0.90Q166.85-2.18 166.85-3.46L166.85-3.46L166.85-3.46Q166.85-9.22 171.81-15.84L171.81-15.84L171.81-15.84Q176.77-22.46 183.97-27.62L183.97-27.62L183.97-27.62Q191.17-32.77 199.49-36.26L199.49-36.26L199.49-36.26Q207.81-39.74 214.27-39.81L214.27-39.81L214.34-39.81L214.34-39.81Q216.38-39.81 217.76-38.43L217.76-38.43L217.76-38.43Q219.14-37.06 219.14-36.03L219.14-36.03L219.14-36.03Q219.14-35.71 219.07-35.58ZM163.52 23.30L163.52 23.30L163.52 23.30Q163.52 23.68 163.84 23.68L163.84 23.68L163.97 23.68L163.97 23.68Q165.57 23.68 172.06 17.57L172.06 17.57L172.06 17.57Q178.56 11.46 179.71 8.51L179.71 8.51L179.71 8.51Q179.71 8.38 179.58 8.38L179.58 8.38L179.58 8.38Q175.30 9.92 169.41 15.84L169.41 15.84L169.41 15.84Q163.52 21.76 163.52 23.30ZM216.70-34.50L216.70-34.50L216.70-34.50Q217.09-34.88 217.09-35.10L217.09-35.10L217.09-35.10Q217.09-35.33 216.51-35.33L216.51-35.33L216.51-35.33Q212.61-35.33 206.56-32.67L206.56-32.67L206.56-32.67Q200.51-30.02 194.21-25.66L194.21-25.66L194.21-25.66Q187.90-21.31 181.86-14.94L181.86-14.94L181.86-14.94Q175.81-8.58 172.29-1.92L172.29-1.92L172.29-1.92Q172.10-1.66 172.10-1.44L172.10-1.44L172.10-1.44Q172.10-1.22 172.42-1.22L172.42-1.22L172.42-1.22Q176-1.22 189.41-11.68L189.41-11.68L189.41-11.68Q202.82-22.14 216.70-34.50ZM218.56-2.69L218.56-2.69L219.07-6.78L219.07-6.78Q219.07-6.98 218.98-6.98L218.98-6.98L218.98-6.98Q218.88-6.98 218.62-6.72L218.62-6.72L218.62-6.72Q217.79-5.82 216.51-4.51L216.51-4.51L216.51-4.51Q215.23-3.20 212.13-0.99L212.13-0.99L212.13-0.99Q209.02 1.22 207.10 1.22L207.10 1.22L207.10 1.22Q206.78 1.15 206.30 0.99L206.30 0.99L206.30 0.99Q205.82 0.83 205.06-0.06L205.06-0.06L205.06-0.06Q204.29-0.96 204.29-2.62L204.29-2.62L204.29-2.62Q204.29-4.29 206.82-7.71L206.82-7.71L206.82-7.71Q209.34-11.14 212.86-14.43L212.86-14.43L212.86-14.43Q216.38-17.73 220.70-20.16L220.70-20.16L220.70-20.16Q225.02-22.59 228.22-22.59L228.22-22.59L228.22-22.59Q229.44-22.53 230.14-20.86L230.14-20.86L230.14-20.86Q230.78-21.50 231.30-21.50L231.30-21.50L231.30-21.50Q231.81-21.50 232.51-20.74L232.51-20.74L232.51-20.74Q232.90-20.67 233.28-20.32L233.28-20.32L233.28-20.32Q233.66-19.97 233.66-19.33L233.66-19.33L233.66-19.33Q233.66-18.69 232.77-17.92L232.77-17.92L232.77-17.92Q231.42-16.26 229.63-14.14L229.63-14.14L229.63-14.14Q227.84-12.03 227.07-11.10L227.07-11.10L227.07-11.10Q226.30-10.18 225.47-9.02L225.47-9.02L225.47-9.02Q224.06-7.04 223.94-5.82L223.94-5.82L223.94-5.82Q230.46-8.96 244.48-19.33L244.48-19.33L244.48-19.33Q245.06-18.88 245.06-18.24L245.06-18.24L245.06-18.24Q245.06-17.60 244.54-17.15L244.54-17.15L244.54-17.15Q244.03-16.70 243.30-16.06L243.30-16.06L243.30-16.06Q242.56-15.42 240.38-13.57L240.38-13.57L240.38-13.57Q238.21-11.71 236.19-10.02L236.19-10.02L236.19-10.02Q234.18-8.32 231.58-6.24L231.58-6.24L231.58-6.24Q228.99-4.16 226.94-2.69L226.94-2.69L226.94-2.69Q222.02 0.83 220.80 0.83L220.80 0.83L220.80 0.83Q219.58 0.83 219.07 0.06L219.07 0.06L219.07 0.06Q218.56-0.70 218.56-2.69ZM212.03-5.38L212.03-5.38L212.03-5.38Q212.80-5.38 216.74-8.51L216.74-8.51L216.74-8.51Q220.67-11.65 224.19-14.78L224.19-14.78L227.78-17.92L227.78-17.92Q228.03-18.18 228.03-18.27L228.03-18.27L228.03-18.27Q228.03-18.37 227.84-18.37L227.84-18.37L227.84-18.37Q225.41-18.37 221.50-15.58L221.50-15.58L221.50-15.58Q217.60-12.80 214.75-9.70L214.75-9.70L214.75-9.70Q211.90-6.59 211.90-5.50L211.90-5.50L211.90-5.50Q211.90-5.38 212.03-5.38ZM240.70-4.22L240.70-4.22L240.70-4.22Q242.82-4.22 249.06-8L249.06-8L249.06-8Q255.30-11.78 260.42-15.55L260.42-15.55L265.60-19.33L265.60-19.33Q266.18-18.88 266.18-18.24L266.18-18.24L266.18-18.24Q266.18-17.60 265.54-17.02L265.54-17.02L265.54-17.02Q264.90-16.45 263.71-15.36L263.71-15.36L263.71-15.36Q262.53-14.27 259.20-11.46L259.20-11.46L259.20-11.46Q255.87-8.64 252.99-6.34L252.99-6.34L252.99-6.34Q245.44-0.26 241.86 0.83L241.86 0.83L241.86 0.83Q240.70 1.15 239.49 1.15L239.49 1.15L239.49 1.15Q238.27 1.15 237.57 0.96L237.57 0.96L237.57 0.96Q236.86 0.77 236.03 0.13L236.03 0.13L236.03 0.13Q234.37-1.28 234.37-6.14L234.37-6.14L234.37-6.14Q234.37-7.49 235.52-10.24L235.52-10.24L235.52-10.24Q236.67-12.99 239.33-16.90L239.33-16.90L239.33-16.90Q241.98-20.80 245.54-24.70L245.54-24.70L245.54-24.70Q249.09-28.61 254.56-32.51L254.56-32.51L254.56-32.51Q260.03-36.42 266.24-38.85L266.24-38.85L266.24-38.85Q267.20-39.17 267.97-39.17L267.97-39.17L267.97-39.17Q268.74-39.17 269.38-38.50L269.38-38.50L269.38-38.50Q270.02-37.82 270.27-37.12L270.27-37.12L270.59-36.48L270.59-36.48Q270.59-35.01 266.05-30.02L266.05-30.02L266.05-30.02Q261.38-24.83 255.26-20.13L255.26-20.13L255.26-20.13Q249.15-15.42 243.90-12.10L243.90-12.10L243.90-12.10Q239.62-9.28 239.62-6.21L239.62-6.21L239.62-6.21Q239.62-4.22 240.70-4.22ZM246.46-17.47L246.46-17.47L246.46-17.47Q248.06-17.47 256.16-25.34L256.16-25.34L256.16-25.34Q264.26-33.22 264.26-34.11L264.26-34.11L264.19-34.24L263.10-33.73L263.10-33.73Q259.78-31.55 254.24-26.30L254.24-26.30L254.24-26.30Q248.70-21.06 246.59-18.11L246.59-18.11L246.59-18.11Q246.34-17.79 246.34-17.63L246.34-17.63L246.34-17.63Q246.34-17.47 246.46-17.47ZM261.76-4.22L261.76-4.22L261.76-4.22Q263.87-4.22 270.11-8L270.11-8L270.11-8Q276.35-11.78 281.47-15.55L281.47-15.55L286.66-19.33L286.66-19.33Q287.23-18.88 287.23-18.24L287.23-18.24L287.23-18.24Q287.23-17.60 286.59-17.02L286.59-17.02L286.59-17.02Q285.95-16.45 284.77-15.36L284.77-15.36L284.77-15.36Q283.58-14.27 280.26-11.46L280.26-11.46L280.26-11.46Q276.93-8.64 274.05-6.34L274.05-6.34L274.05-6.34Q266.50-0.26 262.91 0.83L262.91 0.83L262.91 0.83Q261.76 1.15 260.54 1.15L260.54 1.15L260.54 1.15Q259.33 1.15 258.62 0.96L258.62 0.96L258.62 0.96Q257.92 0.77 257.09 0.13L257.09 0.13L257.09 0.13Q255.42-1.28 255.42-6.14L255.42-6.14L255.42-6.14Q255.42-7.49 256.58-10.24L256.58-10.24L256.58-10.24Q257.73-12.99 260.38-16.90L260.38-16.90L260.38-16.90Q263.04-20.80 266.59-24.70L266.59-24.70L266.59-24.70Q270.14-28.61 275.62-32.51L275.62-32.51L275.62-32.51Q281.09-36.42 287.30-38.85L287.30-38.85L287.30-38.85Q288.26-39.17 289.02-39.17L289.02-39.17L289.02-39.17Q289.79-39.17 290.43-38.50L290.43-38.50L290.43-38.50Q291.07-37.82 291.33-37.12L291.33-37.12L291.65-36.48L291.65-36.48Q291.65-35.01 287.10-30.02L287.10-30.02L287.10-30.02Q282.43-24.83 276.32-20.13L276.32-20.13L276.32-20.13Q270.21-15.42 264.96-12.10L264.96-12.10L264.96-12.10Q260.67-9.28 260.67-6.21L260.67-6.21L260.67-6.21Q260.67-4.22 261.76-4.22ZM267.52-17.47L267.52-17.47L267.52-17.47Q269.12-17.47 277.22-25.34L277.22-25.34L277.22-25.34Q285.31-33.22 285.31-34.11L285.31-34.11L285.25-34.24L284.16-33.73L284.16-33.73Q280.83-31.55 275.30-26.30L275.30-26.30L275.30-26.30Q269.76-21.06 267.65-18.11L267.65-18.11L267.65-18.11Q267.39-17.79 267.39-17.63L267.39-17.63L267.39-17.63Q267.39-17.47 267.52-17.47ZM294.08-19.33L294.08-19.33L294.08-19.33Q292.42-19.33 288.45-15.90L288.45-15.90L288.45-15.90Q284.48-12.48 284.48-11.71L284.48-11.71L284.48-11.71Q284.48-11.58 284.67-11.58L284.67-11.58L284.67-11.58Q286.08-11.58 290.27-14.72L290.27-14.72L290.27-14.72Q294.46-17.86 294.46-19.01L294.46-19.01L294.46-19.01Q294.46-19.33 294.08-19.33ZM280.45 1.15L280.45 1.15L280.45 1.15Q275.52 1.15 275.52-4.86L275.52-4.86L275.52-4.86Q275.52-8.64 278.82-12.90L278.82-12.90L278.82-12.90Q282.11-17.15 286.59-19.87L286.59-19.87L286.59-19.87Q291.07-22.59 294.53-22.59L294.53-22.59L294.53-22.59Q296.06-22.59 297.38-21.38L297.38-21.38L297.38-21.38Q298.69-20.16 298.69-19.01L298.69-19.01L298.69-19.01Q298.69-16.90 295.68-14.24L295.68-14.24L295.68-14.24Q292.67-11.58 289.38-9.95L289.38-9.95L289.38-9.95Q286.08-8.32 285.02-8.32L285.02-8.32L285.02-8.32Q283.97-8.32 283.46-9.28L283.46-9.28L283.46-9.28Q283.20-9.47 282.75-9.47L282.75-9.47L282.75-9.47Q282.30-9.47 281.28-7.78L281.28-7.78L281.28-7.78Q280.26-6.08 280.26-5.02L280.26-5.02L280.26-5.02Q280.26-3.97 281.02-3.71L281.02-3.71L281.02-3.71Q285.89-3.71 291.58-6.56L291.58-6.56L291.58-6.56Q297.28-9.41 307.33-16.58L307.33-16.58L307.33-16.58Q308.03-17.09 309.47-18.11L309.47-18.11L309.47-18.11Q310.91-19.14 311.17-19.33L311.17-19.33L311.17-19.33Q311.74-18.88 311.74-18.24L311.74-18.24L311.74-18.24Q311.74-17.60 311.17-17.09L311.17-17.09L311.17-17.09Q307.97-13.89 302.88-9.92L302.88-9.92L302.88-9.92Q297.79-5.95 291.20-2.40L291.20-2.40L291.20-2.40Q284.61 1.15 280.45 1.15ZM300.48-11.97L300.48-11.97L300.48-11.97Q304-14.40 307.84-17.22L307.84-17.22L307.84-17.22Q305.79-18.62 305.22-19.97L305.22-19.97L305.22-19.97Q305.02-20.42 305.02-20.61L305.02-20.61L305.02-20.61Q305.02-21.89 305.86-22.30L305.86-22.30L305.86-22.30Q306.69-22.72 308.54-22.72L308.54-22.72L308.54-22.72Q309.25-22.72 312.70-20.99L312.70-20.99L312.70-20.99Q316.16-19.26 317.09-19.26L317.09-19.26L317.09-19.26Q318.02-19.26 319.68-19.81L319.68-19.81L319.68-19.81Q321.34-20.35 322.34-20.35L322.34-20.35L322.34-20.35Q323.33-20.35 323.78-19.90L323.78-19.90L323.78-19.90Q325.38-17.79 325.38-17.34L325.38-17.34L325.38-17.34Q325.38-16.90 324.96-16.61L324.96-16.61L324.96-16.61Q324.54-16.32 322.34-14.78L322.34-14.78L322.34-14.78Q320.13-13.25 318.02-11.65L318.02-11.65L318.02-11.65Q315.90-10.05 314.05-8.06L314.05-8.06L314.05-8.06Q312.19-6.08 312.19-4.86L312.19-4.86L312.19-4.86Q312.19-4.67 312.51-4.67L312.51-4.67L312.51-4.67Q315.97-4.67 335.81-18.69L335.81-18.69L335.81-18.69Q336.26-18.69 336.26-17.89L336.26-17.89L336.26-17.89Q336.26-17.09 331.20-12.38L331.20-12.38L331.20-12.38Q326.14-7.68 319.78-3.17L319.78-3.17L319.78-3.17Q313.41 1.34 310.53 1.34L310.53 1.34L310.53 1.34Q306.05 1.34 306.05-3.14L306.05-3.14L306.05-3.14Q306.05-5.57 307.68-7.84L307.68-7.84L307.68-7.84Q309.31-10.11 314.56-13.95L314.56-13.95L314.56-13.95Q313.47-13.95 311.62-14.50L311.62-14.50L311.62-14.50Q309.76-15.04 309.25-15.81L309.25-15.81L309.25-15.81Q307.58-14.34 303.49-10.88L303.49-10.88L303.49-10.88Q302.53-10.18 300.99-10.18L300.99-10.18L300.99-10.18Q299.46-10.18 299.46-10.66L299.46-10.66L299.46-10.66Q299.46-11.14 300.48-11.97ZM348.93-20.67L348.93-20.67L348.93-20.67Q351.94-20.35 351.94-19.33L351.94-19.33L351.94-19.33Q351.94-18.88 351.42-18.30L351.42-18.30L351.42-18.30Q342.40-8.26 330.69 7.30L330.69 7.30L330.69 7.30Q327.30 11.90 323.78 16L323.78 16L323.78 16Q320.26 20.10 317.18 21.98L317.18 21.98L317.18 21.98Q314.11 23.87 310.78 23.87L310.78 23.87L310.78 23.87Q309.12 23.87 307.84 22.98L307.84 22.98L307.84 22.98Q306.56 22.08 306.56 20.54L306.56 20.54L306.56 20.54Q306.56 16.96 310.02 13.12L310.02 13.12L310.02 13.12Q313.47 9.28 317.76 6.88L317.76 6.88L317.76 6.88Q322.05 4.48 325.18 4.10L325.18 4.10L326.53 4.29L326.53 4.29Q327.17 4.22 331.23-0.64L331.23-0.64L331.23-0.64Q335.30-5.50 335.33-5.79L335.33-5.79L335.33-5.79Q335.36-6.08 335.23-6.08L335.23-6.08L334.02-5.12L334.02-5.12Q329.22-0.64 326.53-0.64L326.53-0.64L326.53-0.64Q324.80-0.64 324.80-3.07L324.80-3.07L324.80-3.07Q324.80-6.34 330.11-13.38L330.11-13.38L330.11-13.38Q335.42-20.42 337.92-20.42L337.92-20.42L337.92-20.42Q338.11-20.42 338.37-20.29L338.37-20.29L338.37-20.29Q340.16-19.84 340.16-19.01L340.16-19.01L340.16-19.01Q340.16-18.69 340-18.53L340-18.53L340-18.53Q339.84-18.37 338.72-17.28L338.72-17.28L338.72-17.28Q337.60-16.19 336.51-15.01L336.51-15.01L336.51-15.01Q335.42-13.82 334.21-12.42L334.21-12.42L334.21-12.42Q331.46-9.22 331.46-7.62L331.46-7.62L331.46-7.62Q331.46-7.23 331.87-7.23L331.87-7.23L331.87-7.23Q332.29-7.23 333.44-7.94L333.44-7.94L333.44-7.94Q342.53-14.14 347.65-19.78L347.65-19.78L347.65-19.78Q348.10-20.67 348.93-20.67ZM309.89 21.06L309.89 21.06L309.89 21.06Q312.13 20.35 315.90 16.67L315.90 16.67L315.90 16.67Q319.68 12.99 322.37 9.73L322.37 9.73L325.06 6.40L325.06 6.40Q325.44 5.89 325.44 5.76L325.44 5.76L325.44 5.76Q325.44 5.63 325.25 5.63L325.25 5.63L325.25 5.63Q323.20 5.63 319.39 8.77L319.39 8.77L319.39 8.77Q315.58 11.90 312.61 15.62L312.61 15.62L312.61 15.62Q309.63 19.33 309.63 20.86L309.63 20.86L309.63 20.86Q309.63 21.06 309.89 21.06Z" fill="url(#editing-gradient-gradient)"></path></g></g><style>text {
  font-size: 64px;
  font-family: Arial Black;
  dominant-baseline: central;
  text-anchor: middle;
}</style></svg>