<svg xmlns="http://www.w3.org/2000/svg" viewBox="0 0 362 73" width="362" height="73" style="background: none;" preserveAspectRatio="xMidYMid"><rect id="backgroundrect" width="100%" height="100%" x="0" y="0" fill="none" stroke="none"/><defs><linearGradient id="editing-gradient-gradient" x1="0" x2="1" y1="0.5" y2="0.5" gradientUnits="objectBoundingBox"><stop offset="0" stop-color="#f0f"/><stop offset="1" stop-color="#0ff"/></linearGradient></defs><style>text {
  font-size: 64px;
  font-family: Arial Black;
  dominant-baseline: central;
  text-anchor: middle;
}</style><g class="currentLayer" style=""><title>Layer 1</title><g id="svg_1" class=""><g id="svg_2"><path d="M44.99000366210937,-6.103515630684342e-7 L44.99000366210937,-6.103515630684342e-7 L44.99000366210937,-6.103515630684342e-7 Q51.00000366210938,-6.103515630684342e-7 51.00000366210938,4.669999389648439 L51.00000366210938,4.669999389648439 L51.00000366210938,4.669999389648439 Q51.00000366210938,8.95999938964843 44.83000366210938,17.079999389648435 L44.83000366210938,17.079999389648435 L44.83000366210938,17.079999389648435 Q38.65000366210937,25.20999938964843 30.520003662109374,32.95999938964843 L30.520003662109374,32.95999938964843 L30.520003662109374,32.95999938964843 Q20.92000366210938,42.109999389648436 13.630003662109374,46.90999938964843 L13.630003662109374,46.90999938964843 L13.630003662109374,46.90999938964843 Q12.54000366210937,47.609999389648436 9.76000366210937,48.829999389648435 L9.76000366210937,48.829999389648435 L9.76000366210937,48.829999389648435 Q6.970003662109377,50.03999938964844 4.92000366210938,50.03999938964844 L4.92000366210938,50.03999938964844 L4.92000366210938,50.03999938964844 Q3.840003662109382,50.03999938964844 0.640003662109379,48.319999389648444 L0.640003662109379,48.319999389648444 L0.640003662109379,48.319999389648444 Q0.000003662109378410605,47.86999938964844 0.000003662109378410605,47.359999389648436 L0.000003662109378410605,47.359999389648436 L0.000003662109378410605,47.359999389648436 Q0.000003662109378410605,46.51999938964843 2.3000036621093756,46.26999938964843 L2.3000036621093756,46.26999938964843 L2.3000036621093756,46.26999938964843 Q5.560003662109381,45.94999938964844 13.370003662109369,40.15999938964843 L13.370003662109369,40.15999938964843 L13.370003662109369,40.15999938964843 Q21.18000366210937,34.359999389648436 28.92000366210938,27.259999389648442 L28.92000366210938,27.259999389648442 L28.92000366210938,27.259999389648442 Q36.67000366210938,20.159999389648434 42.62000366210938,13.439999389648435 L42.62000366210938,13.439999389648435 L42.62000366210938,13.439999389648435 Q48.57000366210937,6.719999389648436 48.57000366210937,4.5999993896484455 L48.57000366210937,4.5999993896484455 L48.57000366210937,4.5999993896484455 Q48.57000366210937,4.08999938964844 48.06000366210938,4.08999938964844 L48.06000366210938,4.08999938964844 L48.06000366210938,4.08999938964844 Q44.86000366210938,4.08999938964844 37.18000366210937,8.379999389648447 L37.18000366210937,8.379999389648447 L37.18000366210937,8.379999389648447 Q29.50000366210938,12.669999389648439 22.840003662109382,18.399999389648443 L22.840003662109382,18.399999389648443 L22.840003662109382,18.399999389648443 Q16.190003662109376,24.11999938964844 16.190003662109376,27.44999938964844 L16.190003662109376,27.44999938964844 L16.190003662109376,27.44999938964844 Q16.190003662109376,27.579999389648435 16.380003662109374,27.579999389648435 L16.380003662109374,27.579999389648435 L16.380003662109374,27.579999389648435 Q17.980003662109368,27.579999389648435 23.32000366210937,23.609999389648436 L23.32000366210937,23.609999389648436 L23.32000366210937,23.609999389648436 Q28.67000366210938,19.639999389648438 31.04000366210937,16.95999938964843 L31.04000366210937,16.95999938964843 L31.04000366210937,16.95999938964843 Q31.68000366210937,16.319999389648444 32.06000366210938,16.319999389648444 L32.06000366210938,16.319999389648444 L32.06000366210938,16.319999389648444 Q32.57000366210937,16.379999389648432 32.57000366210937,16.759999389648442 L32.57000366210937,16.759999389648442 L32.57000366210937,16.759999389648442 Q32.57000366210937,17.149999389648443 31.64000366210938,18.779999389648438 L31.64000366210938,18.779999389648438 L31.64000366210938,18.779999389648438 Q30.720003662109377,20.409999389648434 29.020003662109374,22.649999389648443 L29.020003662109374,22.649999389648443 L29.020003662109374,22.649999389648443 Q27.32000366210937,24.889999389648438 25.28000366210938,27.039999389648443 L25.28000366210938,27.039999389648443 L25.28000366210938,27.039999389648443 Q23.230003662109368,29.17999938964843 20.67000366210938,30.67999938964843 L20.67000366210938,30.67999938964843 L20.67000366210938,30.67999938964843 Q18.110003662109378,32.189999389648435 15.90000366210937,32.189999389648435 L15.90000366210937,32.189999389648435 L15.90000366210937,32.189999389648435 Q13.690003662109376,32.189999389648435 12.730003662109368,30.399999389648443 L12.730003662109368,30.399999389648443 L12.730003662109368,30.399999389648443 Q11.770003662109374,28.599999389648445 11.770003662109374,26.749999389648437 L11.770003662109374,26.749999389648437 L11.770003662109374,26.749999389648437 Q11.770003662109374,22.399999389648443 15.520003662109374,17.439999389648435 L15.520003662109374,17.439999389648435 L15.520003662109374,17.439999389648435 Q19.26000366210937,12.479999389648441 24.51000366210937,8.729999389648441 L24.51000366210937,8.729999389648441 L24.51000366210937,8.729999389648441 Q29.76000366210937,4.989999389648432 35.45000366210937,2.489999389648432 L35.45000366210937,2.489999389648432 L35.45000366210937,2.489999389648432 Q41.15000366210937,-6.103515630684342e-7 44.99000366210937,-6.103515630684342e-7 zM60.48000366210937,42.16999938964844 L60.48000366210937,42.16999938964844 L60.48000366210937,42.16999938964844 Q60.48000366210937,42.74999938964844 61.210003662109386,42.74999938964844 L61.210003662109386,42.74999938964844 L61.210003662109386,42.74999938964844 Q61.95000366210937,42.74999938964844 63.900003662109384,41.84999938964843 L63.900003662109384,41.84999938964843 L63.900003662109384,41.84999938964843 Q65.85000366210937,40.95999938964843 68.57000366210937,39.09999938964843 L68.57000366210937,39.09999938964843 L68.57000366210937,39.09999938964843 Q71.29000366210937,37.23999938964843 75.80000366210936,33.819999389648444 L75.80000366210936,33.819999389648444 L75.80000366210936,33.819999389648444 Q80.32000366210937,30.399999389648443 83.71000366210939,28.029999389648438 L83.71000366210939,28.029999389648438 L83.71000366210939,28.029999389648438 Q84.28000366210938,28.47999938964844 84.28000366210938,29.11999938964844 L84.28000366210938,29.11999938964844 L84.28000366210938,29.11999938964844 Q84.28000366210938,29.759999389648442 83.71000366210939,30.269999389648433 L83.71000366210939,30.269999389648433 L83.71000366210939,30.269999389648433 Q81.66000366210938,32.24999938964844 78.52000366210939,35.22999938964844 L78.52000366210939,35.22999938964844 L78.52000366210939,35.22999938964844 Q75.3900036621094,38.19999938964844 68.96000366210939,43.19999938964844 L68.96000366210939,43.19999938964844 L68.96000366210939,43.19999938964844 Q62.52000366210939,48.189999389648435 59.96000366210937,48.189999389648435 L59.96000366210937,48.189999389648435 L59.96000366210937,48.189999389648435 Q55.04000366210937,48.189999389648435 55.04000366210937,42.939999389648435 L55.04000366210937,42.939999389648435 L55.04000366210937,42.939999389648435 Q55.04000366210937,40.95999938964843 56.57000366210937,38.77999938964844 L56.57000366210937,38.77999938964844 L59.32000366210937,34.99999938964844 L59.32000366210937,34.99999938964844 Q59.71000366210937,34.42999938964843 59.71000366210937,34.329999389648435 L59.71000366210937,34.329999389648435 L59.71000366210937,34.329999389648435 Q59.71000366210937,34.23999938964843 59.32000366210937,34.55999938964844 L59.32000366210937,34.55999938964844 L59.32000366210937,34.55999938964844 Q48.190003662109376,43.83999938964844 45.12000366210938,45.439999389648435 L45.12000366210938,45.439999389648435 L45.12000366210938,45.439999389648435 Q44.60000366210937,45.75999938964844 43.84000366210938,45.75999938964844 L43.84000366210938,45.75999938964844 L43.84000366210938,45.75999938964844 Q41.72000366210938,45.75999938964844 41.72000366210938,43.83999938964844 L41.72000366210938,43.83999938964844 L41.72000366210938,43.83999938964844 Q41.72000366210938,43.19999938964844 42.04000366210937,42.679999389648444 L42.04000366210937,42.679999389648444 L42.04000366210937,42.679999389648444 Q45.76000366210937,37.30999938964844 47.74000366210937,35.44999938964844 L47.74000366210937,35.44999938964844 L48.83000366210938,34.359999389648436 L48.83000366210938,34.359999389648436 Q48.96000366210937,34.23999938964843 48.96000366210937,34.109999389648436 L48.96000366210937,34.109999389648436 L48.96000366210937,34.109999389648436 Q48.96000366210937,33.97999938964844 48.83000366210938,33.97999938964844 L48.83000366210938,33.97999938964844 L48.83000366210938,33.97999938964844 Q48.70000366210937,33.97999938964844 48.440003662109376,34.23999938964843 L48.440003662109376,34.23999938964843 L41.60000366210937,39.609999389648436 L41.60000366210937,39.609999389648436 Q35.64000366210938,44.27999938964844 35.10000366210937,44.569999389648444 L35.10000366210937,44.569999389648444 L35.10000366210937,44.569999389648444 Q34.56000366210938,44.859999389648436 34.11000366210938,44.859999389648436 L34.11000366210938,44.859999389648436 L34.11000366210938,44.859999389648436 Q33.660003662109375,44.859999389648436 32.70000366210937,44.319999389648444 L32.70000366210937,44.319999389648444 L32.70000366210937,44.319999389648444 Q31.740003662109373,43.76999938964843 31.740003662109373,43.069999389648444 L31.740003662109373,43.069999389648444 L31.740003662109373,43.069999389648444 Q31.740003662109373,42.87999938964843 31.93000366210937,42.55999938964844 L31.93000366210937,42.55999938964844 L31.93000366210937,42.55999938964844 Q38.20000366210937,35.63999938964844 41.08000366210938,31.159999389648434 L41.08000366210938,31.159999389648434 L41.08000366210938,31.159999389648434 Q42.300003662109376,29.239999389648432 43.23000366210937,27.739999389648432 L43.23000366210937,27.739999389648432 L43.23000366210937,27.739999389648432 Q44.160003662109375,26.239999389648432 44.70000366210937,25.599999389648445 L44.70000366210937,25.599999389648445 L44.70000366210937,25.599999389648445 Q45.24000366210937,24.95999938964843 45.880003662109374,24.95999938964843 L45.880003662109374,24.95999938964843 L45.880003662109374,24.95999938964843 Q46.520003662109374,24.95999938964843 47.32000366210937,25.689999389648435 L47.32000366210937,25.689999389648435 L47.32000366210937,25.689999389648435 Q48.12000366210938,26.42999938964843 48.12000366210938,27.19999938964844 L48.12000366210938,27.19999938964844 L48.12000366210938,27.19999938964844 Q48.12000366210938,27.95999938964843 47.61000366210938,28.799999389648434 L47.61000366210938,28.799999389648434 L47.61000366210938,28.799999389648434 Q45.440003662109376,32.69999938964844 44.22000366210938,33.849999389648445 L44.22000366210938,33.849999389648445 L44.22000366210938,33.849999389648445 Q44.03000366210938,34.03999938964844 44.03000366210938,34.19999938964844 L44.03000366210938,34.19999938964844 L44.03000366210938,34.19999938964844 Q44.03000366210938,34.359999389648436 44.160003662109375,34.359999389648436 L44.160003662109375,34.359999389648436 L44.35000366210937,34.299999389648434 L52.920003662109366,28.349999389648445 L52.920003662109366,28.349999389648445 Q56.190003662109376,26.109999389648436 56.83000366210938,26.109999389648436 L56.83000366210938,26.109999389648436 L56.83000366210938,26.109999389648436 Q57.47000366210938,26.109999389648436 58.20000366210937,26.519999389648433 L58.20000366210937,26.519999389648433 L58.20000366210937,26.519999389648433 Q58.940003662109376,26.939999389648435 58.940003662109376,27.44999938964844 L58.940003662109376,27.44999938964844 L58.940003662109376,27.44999938964844 Q58.940003662109376,27.95999938964843 58.62000366210938,28.47999938964844 L58.62000366210938,28.47999938964844 L54.46000366210937,34.16999938964844 L54.46000366210937,34.16999938964844 Q53.630003662109374,35.19999938964844 53.630003662109374,35.319999389648444 L53.630003662109374,35.319999389648444 L53.630003662109374,35.319999389648444 Q53.630003662109374,35.44999938964844 53.690003662109376,35.44999938964844 L53.690003662109376,35.44999938964844 L54.01000366210937,35.25999938964844 L54.01000366210937,35.25999938964844 Q62.01000366210937,29.819999389648444 64.86000366210936,27.70999938964843 L64.86000366210936,27.70999938964843 L64.86000366210936,27.70999938964843 Q67.71000366210939,25.599999389648445 68.28000366210938,25.019999389648433 L68.28000366210938,25.019999389648433 L68.28000366210938,25.019999389648433 Q69.18000366210939,24.379999389648432 69.79000366210937,24.379999389648432 L69.79000366210937,24.379999389648432 L69.79000366210937,24.379999389648432 Q70.40000366210938,24.379999389648432 70.59000366210938,24.509999389648442 L70.59000366210938,24.509999389648442 L72.00000366210938,25.599999389648445 L72.00000366210938,25.599999389648445 Q72.64000366210936,25.91999938964844 72.64000366210936,26.42999938964843 L72.64000366210936,26.42999938964843 L72.64000366210936,26.42999938964843 Q72.64000366210936,26.939999389648435 72.38000366210937,27.259999389648442 L72.38000366210937,27.259999389648442 L72.38000366210937,27.259999389648442 Q68.60000366210937,31.359999389648436 66.33000366210939,33.78999938964844 L66.33000366210939,33.78999938964844 L66.33000366210939,33.78999938964844 Q64.06000366210938,36.219999389648436 63.04000366210937,37.36999938964844 L63.04000366210937,37.36999938964844 L63.04000366210937,37.36999938964844 Q61.37000366210938,39.359999389648436 60.99000366210936,40.569999389648444 L60.99000366210936,40.569999389648444 L60.99000366210936,40.569999389648444 Q60.48000366210937,41.469999389648436 60.48000366210937,42.16999938964844 zM84.60000366210937,43.44999938964844 L84.60000366210937,43.44999938964844 L85.12000366210935,39.359999389648436 L85.12000366210935,39.359999389648436 Q85.12000366210935,39.15999938964843 85.02000366210939,39.15999938964843 L85.02000366210939,39.15999938964843 L85.02000366210939,39.15999938964843 Q84.92000366210937,39.15999938964843 84.67000366210937,39.41999938964844 L84.67000366210937,39.41999938964844 L84.67000366210937,39.41999938964844 Q83.84000366210938,40.319999389648444 82.56000366210938,41.62999938964843 L82.56000366210938,41.62999938964843 L82.56000366210938,41.62999938964843 Q81.28000366210938,42.939999389648435 78.17000366210937,45.14999938964844 L78.17000366210937,45.14999938964844 L78.17000366210937,45.14999938964844 Q75.07000366210937,47.359999389648436 73.15000366210938,47.359999389648436 L73.15000366210938,47.359999389648436 L73.15000366210938,47.359999389648436 Q72.83000366210939,47.28999938964844 72.35000366210937,47.12999938964843 L72.35000366210937,47.12999938964843 L72.35000366210937,47.12999938964843 Q71.87000366210938,46.969999389648436 71.10000366210937,46.079999389648435 L71.10000366210937,46.079999389648435 L71.10000366210937,46.079999389648435 Q70.33000366210939,45.179999389648444 70.33000366210939,43.51999938964843 L70.33000366210939,43.51999938964843 L70.33000366210939,43.51999938964843 Q70.33000366210939,41.84999938964843 72.86000366210936,38.429999389648444 L72.86000366210936,38.429999389648444 L72.86000366210936,38.429999389648444 Q75.3900036621094,34.99999938964844 78.91000366210938,31.70999938964843 L78.91000366210938,31.70999938964843 L78.91000366210938,31.70999938964843 Q82.43000366210936,28.409999389648434 86.75000366210938,25.97999938964844 L86.75000366210938,25.97999938964844 L86.75000366210938,25.97999938964844 Q91.07000366210937,23.549999389648434 94.27000366210939,23.549999389648434 L94.27000366210939,23.549999389648434 L94.27000366210939,23.549999389648434 Q95.48000366210937,23.609999389648436 96.19000366210938,25.279999389648438 L96.19000366210938,25.279999389648438 L96.19000366210938,25.279999389648438 Q96.83000366210939,24.639999389648438 97.34000366210938,24.639999389648438 L97.34000366210938,24.639999389648438 L97.34000366210938,24.639999389648438 Q97.85000366210937,24.639999389648438 98.56000366210938,25.399999389648443 L98.56000366210938,25.399999389648443 L98.56000366210938,25.399999389648443 Q98.94000366210938,25.469999389648436 99.32000366210937,25.819999389648444 L99.32000366210937,25.819999389648444 L99.32000366210937,25.819999389648444 Q99.71000366210939,26.16999938964844 99.71000366210939,26.80999938964844 L99.71000366210939,26.80999938964844 L99.71000366210939,26.80999938964844 Q99.71000366210939,27.44999938964844 98.81000366210938,28.219999389648436 L98.81000366210938,28.219999389648436 L98.81000366210938,28.219999389648436 Q97.47000366210938,29.879999389648432 95.68000366210936,31.999999389648437 L95.68000366210936,31.999999389648437 L95.68000366210936,31.999999389648437 Q93.88000366210937,34.109999389648436 93.12000366210935,35.03999938964844 L93.12000366210935,35.03999938964844 L93.12000366210935,35.03999938964844 Q92.35000366210937,35.95999938964843 91.52000366210939,37.11999938964844 L91.52000366210939,37.11999938964844 L91.52000366210939,37.11999938964844 Q90.11000366210936,39.09999938964843 89.98000366210937,40.319999389648444 L89.98000366210937,40.319999389648444 L89.98000366210937,40.319999389648444 Q96.51000366210937,37.17999938964843 110.52000366210939,26.80999938964844 L110.52000366210939,26.80999938964844 L110.52000366210939,26.80999938964844 Q111.10000366210937,27.259999389648442 111.10000366210937,27.899999389648443 L111.10000366210937,27.899999389648443 L111.10000366210937,27.899999389648443 Q111.10000366210937,28.539999389648443 110.59000366210938,28.989999389648432 L110.59000366210938,28.989999389648432 L110.59000366210938,28.989999389648432 Q110.08000366210939,29.439999389648435 109.34000366210938,30.079999389648435 L109.34000366210938,30.079999389648435 L109.34000366210938,30.079999389648435 Q108.60000366210937,30.719999389648436 106.43000366210936,32.569999389648444 L106.43000366210936,32.569999389648444 L106.43000366210936,32.569999389648444 Q104.25000366210938,34.42999938964843 102.24000366210936,36.11999938964844 L102.24000366210936,36.11999938964844 L102.24000366210936,36.11999938964844 Q100.22000366210938,37.819999389648444 97.63000366210937,39.89999938964844 L97.63000366210937,39.89999938964844 L97.63000366210937,39.89999938964844 Q95.04000366210937,41.97999938964844 92.99000366210936,43.44999938964844 L92.99000366210936,43.44999938964844 L92.99000366210936,43.44999938964844 Q88.06000366210938,46.969999389648436 86.84000366210938,46.969999389648436 L86.84000366210938,46.969999389648436 L86.84000366210938,46.969999389648436 Q85.63000366210937,46.969999389648436 85.12000366210935,46.19999938964844 L85.12000366210935,46.19999938964844 L85.12000366210935,46.19999938964844 Q84.60000366210937,45.439999389648435 84.60000366210937,43.44999938964844 zM78.08000366210939,40.75999938964844 L78.08000366210939,40.75999938964844 L78.08000366210939,40.75999938964844 Q78.84000366210938,40.75999938964844 82.78000366210938,37.62999938964843 L82.78000366210938,37.62999938964843 L82.78000366210938,37.62999938964843 Q86.72000366210938,34.48999938964843 90.24000366210936,31.359999389648436 L90.24000366210936,31.359999389648436 L93.82000366210937,28.219999389648436 L93.82000366210937,28.219999389648436 Q94.08000366210939,27.95999938964843 94.08000366210939,27.86999938964844 L94.08000366210939,27.86999938964844 L94.08000366210939,27.86999938964844 Q94.08000366210939,27.769999389648433 93.88000366210937,27.769999389648433 L93.88000366210937,27.769999389648433 L93.88000366210937,27.769999389648433 Q91.4500036621094,27.769999389648433 87.55000366210936,30.55999938964844 L87.55000366210936,30.55999938964844 L87.55000366210936,30.55999938964844 Q83.6400036621094,33.33999938964844 80.80000366210936,36.439999389648435 L80.80000366210936,36.439999389648435 L80.80000366210936,36.439999389648435 Q77.9500036621094,39.549999389648434 77.9500036621094,40.63999938964844 L77.9500036621094,40.63999938964844 L77.9500036621094,40.63999938964844 Q77.9500036621094,40.75999938964844 78.08000366210939,40.75999938964844 zM122.2000036621094,27.41999938964844 L122.2000036621094,27.41999938964844 L122.2000036621094,27.41999938964844 Q123.13000366210937,28.159999389648434 123.13000366210937,28.759999389648442 L123.13000366210937,28.759999389648442 L123.13000366210937,28.759999389648442 Q123.13000366210937,29.36999938964844 122.59000366210938,29.879999389648432 L122.59000366210938,29.879999389648432 L122.59000366210938,29.879999389648432 Q122.04000366210937,30.399999389648443 116.60000366210937,37.719999389648436 L116.60000366210937,37.719999389648436 L116.60000366210937,37.719999389648436 Q111.16000366210938,45.049999389648434 109.28000366210938,47.799999389648434 L109.28000366210938,47.799999389648434 L109.28000366210938,47.799999389648434 Q107.3900036621094,50.55999938964844 106.62000366210935,51.799999389648434 L106.62000366210935,51.799999389648434 L106.62000366210935,51.799999389648434 Q105.85000366210937,53.049999389648434 103.4500036621094,56.24999938964844 L103.4500036621094,56.24999938964844 L103.4500036621094,56.24999938964844 Q101.05000366210936,59.44999938964844 98.62000366210935,62.03999938964844 L98.62000366210935,62.03999938964844 L98.62000366210935,62.03999938964844 Q96.19000366210938,64.63999938964844 92.76000366210937,67.03999938964844 L92.76000366210937,67.03999938964844 L92.76000366210937,67.03999938964844 Q89.34000366210938,69.43999938964845 86.2000036621094,70.07999938964844 L86.2000036621094,70.07999938964844 L86.2000036621094,70.07999938964844 Q84.86000366210936,70.07999938964844 83.52000366210939,69.49999938964845 L83.52000366210939,69.49999938964845 L83.52000366210939,69.49999938964845 Q80.96000366210939,68.40999938964845 80.96000366210939,65.46999938964842 L80.96000366210939,65.46999938964842 L80.96000366210939,65.46999938964842 Q80.96000366210939,61.75999938964844 87.90000366210938,56.72999938964844 L87.90000366210938,56.72999938964844 L87.90000366210938,56.72999938964844 Q94.84000366210938,51.70999938964843 98.24000366210936,51.70999938964843 L98.24000366210936,51.70999938964843 L98.24000366210936,51.70999938964843 Q98.75000366210938,51.70999938964843 98.75000366210938,51.89999938964844 L98.75000366210938,51.89999938964844 L98.75000366210938,51.89999938964844 Q98.75000366210938,52.08999938964844 98.11000366210936,52.53999938964844 L98.11000366210936,52.53999938964844 L98.11000366210936,52.53999938964844 Q92.60000366210937,56.319999389648444 88.09000366210938,60.69999938964844 L88.09000366210938,60.69999938964844 L88.09000366210938,60.69999938964844 Q83.58000366210939,65.07999938964844 83.58000366210939,66.93999938964845 L83.58000366210939,66.93999938964845 L83.58000366210939,66.93999938964845 Q83.58000366210939,67.19999938964844 83.96000366210939,67.19999938964844 L83.96000366210939,67.19999938964844 L83.96000366210939,67.19999938964844 Q84.35000366210937,67.19999938964844 85.63000366210937,66.35999938964844 L85.63000366210937,66.35999938964844 L85.63000366210937,66.35999938964844 Q88.7000036621094,64.18999938964845 94.33000366210939,58.42999938964843 L94.33000366210939,58.42999938964843 L94.33000366210939,58.42999938964843 Q100.54000366210937,51.51999938964843 101.9500036621094,49.59999938964843 L101.9500036621094,49.59999938964843 L101.9500036621094,49.59999938964843 Q104.44000366210938,46.19999938964844 107.90000366210938,42.55999938964844 L107.90000366210938,42.55999938964844 L109.18000366210936,41.20999938964843 L109.18000366210936,41.20999938964843 Q109.24000366210936,41.079999389648435 109.37000366210935,40.95999938964843 L109.37000366210935,40.95999938964843 L109.37000366210935,40.95999938964843 Q109.50000366210938,40.829999389648435 109.69000366210938,40.50999938964844 L109.69000366210938,40.50999938964844 L109.69000366210938,40.50999938964844 Q110.2000036621094,39.679999389648444 110.1400036621094,39.679999389648444 L110.1400036621094,39.679999389648444 L110.1400036621094,39.679999389648444 Q109.9500036621094,39.679999389648444 109.31000366210938,40.319999389648444 L109.31000366210938,40.319999389648444 L109.31000366210938,40.319999389648444 Q108.67000366210937,40.95999938964843 107.48000366210937,42.079999389648435 L107.48000366210937,42.079999389648435 L107.48000366210937,42.079999389648435 Q106.30000366210936,43.19999938964844 103.48000366210937,45.079999389648435 L103.48000366210937,45.079999389648435 L103.48000366210937,45.079999389648435 Q100.67000366210937,46.969999389648436 98.94000366210938,46.969999389648436 L98.94000366210938,46.969999389648436 L98.94000366210938,46.969999389648436 Q97.21000366210939,46.969999389648436 96.25000366210938,45.819999389648444 L96.25000366210938,45.819999389648444 L96.25000366210938,45.819999389648444 Q95.29000366210937,44.66999938964844 95.29000366210937,43.359999389648436 L95.29000366210937,43.359999389648436 L95.29000366210937,43.359999389648436 Q95.29000366210937,42.03999938964844 96.96000366210939,39.41999938964844 L96.96000366210939,39.41999938964844 L96.96000366210939,39.41999938964844 Q98.62000366210935,36.799999389648434 101.31000366210938,33.719999389648436 L101.31000366210938,33.719999389648436 L101.31000366210938,33.719999389648436 Q104.00000366210938,30.649999389648443 108.25000366210938,28.029999389648438 L108.25000366210938,28.029999389648438 L108.25000366210938,28.029999389648438 Q112.51000366210937,25.399999389648443 116.99000366210936,24.889999389648438 L116.99000366210936,24.889999389648438 L116.99000366210936,24.889999389648438 Q119.61000366210936,25.469999389648436 120.38000366210937,26.749999389648437 L120.38000366210937,26.749999389648437 L120.38000366210937,26.749999389648437 Q120.51000366210937,26.67999938964843 120.8900036621094,26.67999938964843 L120.8900036621094,26.67999938964843 L120.8900036621094,26.67999938964843 Q121.28000366210938,26.67999938964843 122.2000036621094,27.41999938964844 zM102.33000366210939,40.95999938964843 L102.33000366210939,40.95999938964843 L102.33000366210939,40.95999938964843 Q104.00000366210938,40.829999389648435 108.12000366210935,37.87999938964843 L108.12000366210935,37.87999938964843 L108.12000366210935,37.87999938964843 Q112.25000366210938,34.939999389648435 115.61000366210936,31.999999389648437 L115.61000366210936,31.999999389648437 L115.61000366210936,31.999999389648437 Q118.97000366210938,29.049999389648434 118.97000366210938,28.599999389648445 L118.97000366210938,28.599999389648445 L118.97000366210938,28.599999389648445 Q118.97000366210938,28.47999938964844 118.72000366210938,28.47999938964844 L118.72000366210938,28.47999938964844 L118.72000366210938,28.47999938964844 Q115.3900036621094,29.17999938964843 111.29000366210937,31.999999389648437 L111.29000366210937,31.999999389648437 L111.29000366210937,31.999999389648437 Q107.2000036621094,34.80999938964844 104.6400036621094,37.439999389648435 L104.6400036621094,37.439999389648435 L104.6400036621094,37.439999389648435 Q102.08000366210939,40.05999938964844 102.08000366210939,40.75999938964844 L102.08000366210939,40.75999938964844 L102.08000366210939,40.75999938964844 Q102.08000366210939,40.95999938964843 102.33000366210939,40.95999938964843 zM138.4900036621094,26.80999938964844 L138.4900036621094,26.80999938964844 L138.4900036621094,26.80999938964844 Q136.8300036621094,26.80999938964844 132.86000366210936,30.239999389648432 L132.86000366210936,30.239999389648432 L132.86000366210936,30.239999389648432 Q128.8900036621094,33.65999938964843 128.8900036621094,34.42999938964843 L128.8900036621094,34.42999938964843 L128.8900036621094,34.42999938964843 Q128.8900036621094,34.55999938964844 129.0800036621094,34.55999938964844 L129.0800036621094,34.55999938964844 L129.0800036621094,34.55999938964844 Q130.49000366210936,34.55999938964844 134.68000366210936,31.41999938964844 L134.68000366210936,31.41999938964844 L134.68000366210936,31.41999938964844 Q138.88000366210937,28.279999389648438 138.88000366210937,27.129999389648432 L138.88000366210937,27.129999389648432 L138.88000366210937,27.129999389648432 Q138.88000366210937,26.80999938964844 138.4900036621094,26.80999938964844 zM124.86000366210936,47.28999938964844 L124.86000366210936,47.28999938964844 L124.86000366210936,47.28999938964844 Q119.93000366210936,47.28999938964844 119.93000366210936,41.27999938964844 L119.93000366210936,41.27999938964844 L119.93000366210936,41.27999938964844 Q119.93000366210936,37.49999938964844 123.23000366210937,33.23999938964843 L123.23000366210937,33.23999938964843 L123.23000366210937,33.23999938964843 Q126.52000366210939,28.989999389648432 131.00000366210938,26.269999389648433 L131.00000366210938,26.269999389648433 L131.00000366210938,26.269999389648433 Q135.48000366210937,23.549999389648434 138.94000366210938,23.549999389648434 L138.94000366210938,23.549999389648434 L138.94000366210938,23.549999389648434 Q140.48000366210937,23.549999389648434 141.79000366210937,24.759999389648442 L141.79000366210937,24.759999389648442 L141.79000366210937,24.759999389648442 Q143.10000366210937,25.97999938964844 143.10000366210937,27.129999389648432 L143.10000366210937,27.129999389648432 L143.10000366210937,27.129999389648432 Q143.10000366210937,29.239999389648432 140.09000366210938,31.899999389648443 L140.09000366210938,31.899999389648443 L140.09000366210938,31.899999389648443 Q137.0800036621094,34.55999938964844 133.79000366210937,36.189999389648435 L133.79000366210937,36.189999389648435 L133.79000366210937,36.189999389648435 Q130.49000366210936,37.819999389648444 129.44000366210938,37.819999389648444 L129.44000366210938,37.819999389648444 L129.44000366210938,37.819999389648444 Q128.38000366210937,37.819999389648444 127.87000366210935,36.859999389648436 L127.87000366210935,36.859999389648436 L127.87000366210935,36.859999389648436 Q127.61000366210936,36.66999938964844 127.16000366210938,36.66999938964844 L127.16000366210938,36.66999938964844 L127.16000366210938,36.66999938964844 Q126.72000366210938,36.66999938964844 125.69000366210938,38.359999389648436 L125.69000366210938,38.359999389648436 L125.69000366210938,38.359999389648436 Q124.67000366210937,40.05999938964844 124.67000366210937,41.11999938964844 L124.67000366210937,41.11999938964844 L124.67000366210937,41.11999938964844 Q124.67000366210937,42.16999938964844 125.44000366210938,42.429999389648444 L125.44000366210938,42.429999389648444 L125.44000366210938,42.429999389648444 Q130.30000366210936,42.429999389648444 136.00000366210938,39.579999389648435 L136.00000366210938,39.579999389648435 L136.00000366210938,39.579999389648435 Q141.69000366210938,36.72999938964844 151.7400036621094,29.55999938964844 L151.7400036621094,29.55999938964844 L151.7400036621094,29.55999938964844 Q152.44000366210938,29.049999389648434 153.88000366210937,28.029999389648438 L153.88000366210937,28.029999389648438 L153.88000366210937,28.029999389648438 Q155.32000366210937,26.999999389648437 155.58000366210936,26.80999938964844 L155.58000366210936,26.80999938964844 L155.58000366210936,26.80999938964844 Q156.16000366210938,27.259999389648442 156.16000366210938,27.899999389648443 L156.16000366210938,27.899999389648443 L156.16000366210938,27.899999389648443 Q156.16000366210938,28.539999389648443 155.58000366210936,29.049999389648434 L155.58000366210936,29.049999389648434 L155.58000366210936,29.049999389648434 Q152.38000366210937,32.24999938964844 147.29000366210937,36.219999389648436 L147.29000366210937,36.219999389648436 L147.29000366210937,36.219999389648436 Q142.20000366210937,40.189999389648435 135.61000366210936,43.73999938964843 L135.61000366210936,43.73999938964843 L135.61000366210936,43.73999938964843 Q129.0200036621094,47.28999938964844 124.86000366210936,47.28999938964844 zM150.88000366210937,41.469999389648436 L150.88000366210937,41.469999389648436 L150.88000366210937,41.469999389648436 Q153.08000366210936,41.469999389648436 154.97000366210938,38.74999938964844 L154.97000366210938,38.74999938964844 L154.97000366210938,38.74999938964844 Q156.86000366210936,36.02999938964844 157.63000366210937,33.23999938964843 L157.63000366210937,33.23999938964843 L157.63000366210937,33.23999938964843 Q158.40000366210938,30.45999938964843 158.40000366210938,28.799999389648434 L158.40000366210938,28.799999389648434 L158.40000366210938,28.799999389648434 Q158.40000366210938,28.349999389648445 157.72000366210938,28.349999389648445 L157.72000366210938,28.349999389648445 L157.72000366210938,28.349999389648445 Q157.05000366210936,28.349999389648445 156.16000366210938,29.049999389648434 L156.16000366210938,29.049999389648434 L147.7700036621094,35.51999938964843 L147.7700036621094,35.51999938964843 Q146.88000366210937,36.02999938964844 145.72000366210938,36.02999938964844 L145.72000366210938,36.02999938964844 L145.72000366210938,36.02999938964844 Q144.57000366210937,36.02999938964844 144.57000366210937,35.19999938964844 L144.57000366210937,35.19999938964844 L144.57000366210937,35.19999938964844 Q144.57000366210937,34.61999938964844 144.73000366210937,34.42999938964843 L144.73000366210937,34.42999938964843 L144.73000366210937,34.42999938964843 Q144.89000366210936,34.23999938964843 145.66000366210938,33.78999938964844 L145.66000366210938,33.78999938964844 L145.66000366210938,33.78999938964844 Q150.40000366210938,30.519999389648433 158.59000366210938,23.159999389648434 L158.59000366210938,23.159999389648434 L158.59000366210938,23.159999389648434 Q159.55000366210936,21.879999389648432 160.32000366210937,21.879999389648432 L160.32000366210937,21.879999389648432 L160.32000366210937,21.879999389648432 Q161.08000366210936,21.879999389648432 162.88000366210937,22.359999389648436 L162.88000366210937,22.359999389648436 L162.88000366210937,22.359999389648436 Q164.67000366210937,22.83999938964844 164.67000366210937,23.47999938964844 L164.67000366210937,23.47999938964844 L164.67000366210937,23.47999938964844 Q164.67000366210937,27.319999389648444 163.9600036621094,30.45999938964843 L163.9600036621094,30.45999938964843 L163.9600036621094,30.45999938964843 Q163.26000366210937,33.599999389648445 162.5200036621094,35.22999938964844 L162.5200036621094,35.22999938964844 L162.5200036621094,35.22999938964844 Q161.79000366210937,36.859999389648436 161.79000366210937,36.98999938964843 L161.79000366210937,36.98999938964843 L161.79000366210937,36.98999938964843 Q161.79000366210937,37.11999938964844 161.92000366210937,37.11999938964844 L161.92000366210937,37.11999938964844 L161.92000366210937,37.11999938964844 Q162.04000366210937,37.11999938964844 162.43000366210939,36.91999938964844 L162.43000366210939,36.91999938964844 L162.43000366210939,36.91999938964844 Q167.23000366210937,34.48999938964843 174.65000366210938,28.989999389648432 L174.65000366210938,28.989999389648432 L176.19000366210938,27.83999938964844 L176.19000366210938,27.83999938964844 Q176.76000366210937,28.279999389648438 176.76000366210937,28.91999938964844 L176.76000366210937,28.91999938964844 L176.76000366210937,28.91999938964844 Q176.76000366210937,29.55999938964844 176.19000366210938,30.079999389648435 L176.19000366210938,30.079999389648435 L176.19000366210938,30.079999389648435 Q176.06000366210938,30.079999389648435 172.89000366210936,32.75999938964844 L172.89000366210936,32.75999938964844 L172.89000366210936,32.75999938964844 Q169.72000366210938,35.44999938964844 165.85000366210937,38.61999938964844 L165.85000366210937,38.61999938964844 L165.85000366210937,38.61999938964844 Q161.98000366210937,41.78999938964844 157.56000366210938,44.40999938964843 L157.56000366210938,44.40999938964843 L157.56000366210938,44.40999938964843 Q153.15000366210938,47.03999938964844 150.72000366210938,47.03999938964844 L150.72000366210938,47.03999938964844 L150.72000366210938,47.03999938964844 Q144.70000366210937,47.03999938964844 144.70000366210937,39.799999389648434 L144.70000366210937,39.799999389648434 L144.70000366210937,39.799999389648434 Q144.70000366210937,39.22999938964844 145.18000366210939,38.74999938964844 L145.18000366210939,38.74999938964844 L145.18000366210939,38.74999938964844 Q145.66000366210938,38.26999938964843 146.43000366210939,38.26999938964843 L146.43000366210939,38.26999938964843 L146.43000366210939,38.26999938964843 Q146.43000366210939,38.58999938964844 146.78000366210938,39.25999938964844 L146.78000366210938,39.25999938964844 L146.78000366210938,39.25999938964844 Q147.13000366210937,39.929999389648444 147.5200036621094,40.37999938964843 L147.5200036621094,40.37999938964843 L147.5200036621094,40.37999938964843 Q148.67000366210937,41.469999389648436 150.88000366210937,41.469999389648436 zM228.73000366210937,10.55999938964844 L228.73000366210937,10.55999938964844 L228.73000366210937,10.55999938964844 Q230.65000366210938,11.19999938964844 230.84000366210938,11.83999938964844 L230.84000366210938,11.83999938964844 L230.91000366210938,12.08999938964844 L230.91000366210938,12.08999938964844 Q230.91000366210938,13.439999389648435 228.22000366210938,15.869999389648441 L228.22000366210938,15.869999389648441 L228.22000366210938,15.869999389648441 Q217.28000366210938,28.159999389648434 212.67000366210937,34.87999938964843 L212.67000366210937,34.87999938964843 L212.67000366210937,34.87999938964843 Q211.32000366210934,36.799999389648434 208.8900036621094,40.47999938964844 L208.8900036621094,40.47999938964844 L208.8900036621094,40.47999938964844 Q206.4600036621094,44.15999938964843 204.9600036621094,46.359999389648436 L204.9600036621094,46.359999389648436 L204.9600036621094,46.359999389648436 Q203.45000366210934,48.569999389648444 200.99000366210942,51.929999389648444 L200.99000366210942,51.929999389648444 L200.99000366210942,51.929999389648444 Q198.5200036621094,55.28999938964844 196.6400036621094,57.469999389648436 L196.6400036621094,57.469999389648436 L196.6400036621094,57.469999389648436 Q194.7500036621094,59.63999938964844 192.03000366210938,62.329999389648435 L192.03000366210938,62.329999389648435 L192.03000366210938,62.329999389648435 Q189.31000366210935,65.01999938964843 186.81000366210938,66.80999938964845 L186.81000366210938,66.80999938964845 L186.81000366210938,66.80999938964845 Q181.18000366210939,70.83999938964843 174.72000366210938,72.75999938964844 L174.72000366210938,72.75999938964844 L174.72000366210938,72.75999938964844 Q173.05000366210936,72.75999938964844 171.55000366210936,71.95999938964843 L171.55000366210936,71.95999938964843 L171.55000366210936,71.95999938964843 Q170.04000366210937,71.15999938964845 169.98000366210937,69.68999938964845 L169.98000366210937,69.68999938964845 L169.98000366210937,69.68999938964845 Q170.04000366210937,66.23999938964843 175.36000366210936,61.14999938964844 L175.36000366210936,61.14999938964844 L175.36000366210936,61.14999938964844 Q180.67000366210937,56.05999938964844 189.6300036621094,53.36999938964844 L189.6300036621094,53.36999938964844 L189.6300036621094,53.36999938964844 Q190.91000366210938,53.049999389648434 191.42000366210937,52.40999938964843 L191.42000366210937,52.40999938964843 L209.72000366210938,30.58999938964844 L210.68000366210936,29.30999938964844 L210.68000366210936,29.30999938964844 Q210.81000366210935,29.049999389648434 210.81000366210935,28.95999938964843 L210.81000366210935,28.95999938964843 L210.81000366210935,28.95999938964843 Q210.81000366210935,28.859999389648436 210.72000366210938,28.859999389648436 L210.72000366210938,28.859999389648436 L210.72000366210938,28.859999389648436 Q210.6200036621094,28.859999389648436 207.8700036621094,31.639999389648438 L207.8700036621094,31.639999389648438 L207.8700036621094,31.639999389648438 Q205.1200036621094,34.42999938964843 203.10000366210937,36.599999389648445 L203.10000366210937,36.599999389648445 L203.10000366210937,36.599999389648445 Q201.08000366210933,38.77999938964844 197.82000366210934,41.819999389648444 L197.82000366210934,41.819999389648444 L197.82000366210934,41.819999389648444 Q194.56000366210935,44.859999389648436 189.85000366210937,47.83999938964844 L189.85000366210937,47.83999938964844 L189.85000366210937,47.83999938964844 Q185.15000366210938,50.80999938964844 181.95000366210937,50.80999938964844 L181.95000366210937,50.80999938964844 L181.95000366210937,50.80999938964844 Q177.72000366210938,50.80999938964844 176.70000366210937,45.23999938964843 L176.70000366210937,45.23999938964843 L176.70000366210937,45.23999938964843 Q176.51000366210937,43.95999938964843 176.51000366210937,42.679999389648444 L176.51000366210937,42.679999389648444 L176.51000366210937,42.679999389648444 Q176.51000366210937,36.91999938964844 181.47000366210938,30.299999389648434 L181.47000366210938,30.299999389648434 L181.47000366210938,30.299999389648434 Q186.43000366210939,23.67999938964843 193.6300036621094,18.519999389648433 L193.6300036621094,18.519999389648433 L193.6300036621094,18.519999389648433 Q200.83000366210933,13.369999389648427 209.15000366210938,9.879999389648447 L209.15000366210938,9.879999389648447 L209.15000366210938,9.879999389648447 Q217.47000366210938,6.399999389648428 223.93000366210936,6.329999389648435 L223.93000366210936,6.329999389648435 L224.0000036621094,6.329999389648435 L224.0000036621094,6.329999389648435 Q226.04000366210937,6.329999389648435 227.42000366210937,7.709999389648431 L227.42000366210937,7.709999389648431 L227.42000366210937,7.709999389648431 Q228.80000366210936,9.079999389648435 228.80000366210936,10.109999389648436 L228.80000366210936,10.109999389648436 L228.80000366210936,10.109999389648436 Q228.80000366210936,10.42999938964843 228.73000366210937,10.55999938964844 zM173.18000366210939,69.43999938964845 L173.18000366210939,69.43999938964845 L173.18000366210939,69.43999938964845 Q173.18000366210939,69.81999938964844 173.50000366210938,69.81999938964844 L173.50000366210938,69.81999938964844 L173.63000366210937,69.81999938964844 L173.63000366210937,69.81999938964844 Q175.23000366210937,69.81999938964844 181.72000366210938,63.70999938964843 L181.72000366210938,63.70999938964843 L181.72000366210938,63.70999938964843 Q188.22000366210938,57.599999389648445 189.3700036621094,54.64999938964844 L189.3700036621094,54.64999938964844 L189.3700036621094,54.64999938964844 Q189.3700036621094,54.51999938964843 189.24000366210942,54.51999938964843 L189.24000366210942,54.51999938964843 L189.24000366210942,54.51999938964843 Q184.9600036621094,56.05999938964844 179.07000366210937,61.97999938964844 L179.07000366210937,61.97999938964844 L179.07000366210937,61.97999938964844 Q173.18000366210939,67.89999938964843 173.18000366210939,69.43999938964845 zM226.36000366210936,11.639999389648438 L226.36000366210936,11.639999389648438 L226.36000366210936,11.639999389648438 Q226.7500036621094,11.259999389648442 226.7500036621094,11.039999389648443 L226.7500036621094,11.039999389648443 L226.7500036621094,11.039999389648443 Q226.7500036621094,10.80999938964844 226.17000366210937,10.80999938964844 L226.17000366210937,10.80999938964844 L226.17000366210937,10.80999938964844 Q222.2700036621094,10.80999938964844 216.22000366210938,13.469999389648436 L216.22000366210938,13.469999389648436 L216.22000366210938,13.469999389648436 Q210.17000366210937,16.11999938964844 203.8700036621094,20.47999938964844 L203.8700036621094,20.47999938964844 L203.8700036621094,20.47999938964844 Q197.56000366210935,24.829999389648435 191.5200036621094,31.19999938964844 L191.5200036621094,31.19999938964844 L191.5200036621094,31.19999938964844 Q185.47000366210938,37.55999938964844 181.95000366210937,44.219999389648436 L181.95000366210937,44.219999389648436 L181.95000366210937,44.219999389648436 Q181.76000366210937,44.47999938964844 181.76000366210937,44.69999938964844 L181.76000366210937,44.69999938964844 L181.76000366210937,44.69999938964844 Q181.76000366210937,44.91999938964844 182.08000366210936,44.91999938964844 L182.08000366210936,44.91999938964844 L182.08000366210936,44.91999938964844 Q185.66000366210938,44.91999938964844 199.07000366210934,34.45999938964843 L199.07000366210934,34.45999938964843 L199.07000366210934,34.45999938964843 Q212.48000366210937,23.999999389648437 226.36000366210936,11.639999389648438 zM228.22000366210938,43.44999938964844 L228.22000366210938,43.44999938964844 L228.73000366210937,39.359999389648436 L228.73000366210937,39.359999389648436 Q228.73000366210937,39.15999938964843 228.6400036621094,39.15999938964843 L228.6400036621094,39.15999938964843 L228.6400036621094,39.15999938964843 Q228.54000366210937,39.15999938964843 228.28000366210938,39.41999938964844 L228.28000366210938,39.41999938964844 L228.28000366210938,39.41999938964844 Q227.45000366210934,40.319999389648444 226.17000366210937,41.62999938964843 L226.17000366210937,41.62999938964843 L226.17000366210937,41.62999938964843 Q224.8900036621094,42.939999389648435 221.79000366210937,45.14999938964844 L221.79000366210937,45.14999938964844 L221.79000366210937,45.14999938964844 Q218.68000366210936,47.359999389648436 216.7600036621094,47.359999389648436 L216.7600036621094,47.359999389648436 L216.7600036621094,47.359999389648436 Q216.44000366210935,47.28999938964844 215.9600036621094,47.12999938964843 L215.9600036621094,47.12999938964843 L215.9600036621094,47.12999938964843 Q215.48000366210937,46.969999389648436 214.72000366210938,46.079999389648435 L214.72000366210938,46.079999389648435 L214.72000366210938,46.079999389648435 Q213.95000366210934,45.179999389648444 213.95000366210934,43.51999938964843 L213.95000366210934,43.51999938964843 L213.95000366210934,43.51999938964843 Q213.95000366210934,41.84999938964843 216.48000366210937,38.429999389648444 L216.48000366210937,38.429999389648444 L216.48000366210937,38.429999389648444 Q219.0000036621094,34.99999938964844 222.5200036621094,31.70999938964843 L222.5200036621094,31.70999938964843 L222.5200036621094,31.70999938964843 Q226.04000366210937,28.409999389648434 230.36000366210936,25.97999938964844 L230.36000366210936,25.97999938964844 L230.36000366210936,25.97999938964844 Q234.68000366210936,23.549999389648434 237.8800036621094,23.549999389648434 L237.8800036621094,23.549999389648434 L237.8800036621094,23.549999389648434 Q239.10000366210937,23.609999389648436 239.80000366210936,25.279999389648438 L239.80000366210936,25.279999389648438 L239.80000366210936,25.279999389648438 Q240.44000366210935,24.639999389648438 240.9600036621094,24.639999389648438 L240.9600036621094,24.639999389648438 L240.9600036621094,24.639999389648438 Q241.47000366210938,24.639999389648438 242.17000366210937,25.399999389648443 L242.17000366210937,25.399999389648443 L242.17000366210937,25.399999389648443 Q242.56000366210935,25.469999389648436 242.94000366210935,25.819999389648444 L242.94000366210935,25.819999389648444 L242.94000366210935,25.819999389648444 Q243.32000366210934,26.16999938964844 243.32000366210934,26.80999938964844 L243.32000366210934,26.80999938964844 L243.32000366210934,26.80999938964844 Q243.32000366210934,27.44999938964844 242.43000366210936,28.219999389648436 L242.43000366210936,28.219999389648436 L242.43000366210936,28.219999389648436 Q241.08000366210933,29.879999389648432 239.29000366210937,31.999999389648437 L239.29000366210937,31.999999389648437 L239.29000366210937,31.999999389648437 Q237.5000036621094,34.109999389648436 236.73000366210937,35.03999938964844 L236.73000366210937,35.03999938964844 L236.73000366210937,35.03999938964844 Q235.9600036621094,35.95999938964843 235.1300036621094,37.11999938964844 L235.1300036621094,37.11999938964844 L235.1300036621094,37.11999938964844 Q233.72000366210938,39.09999938964843 233.60000366210937,40.319999389648444 L233.60000366210937,40.319999389648444 L233.60000366210937,40.319999389648444 Q240.1200036621094,37.17999938964843 254.1400036621094,26.80999938964844 L254.1400036621094,26.80999938964844 L254.1400036621094,26.80999938964844 Q254.72000366210938,27.259999389648442 254.72000366210938,27.899999389648443 L254.72000366210938,27.899999389648443 L254.72000366210938,27.899999389648443 Q254.72000366210938,28.539999389648443 254.20000366210934,28.989999389648432 L254.20000366210934,28.989999389648432 L254.20000366210934,28.989999389648432 Q253.69000366210935,29.439999389648435 252.9600036621094,30.079999389648435 L252.9600036621094,30.079999389648435 L252.9600036621094,30.079999389648435 Q252.22000366210938,30.719999389648436 250.04000366210937,32.569999389648444 L250.04000366210937,32.569999389648444 L250.04000366210937,32.569999389648444 Q247.8700036621094,34.42999938964843 245.85000366210937,36.11999938964844 L245.85000366210937,36.11999938964844 L245.85000366210937,36.11999938964844 Q243.84000366210938,37.819999389648444 241.24000366210942,39.89999938964844 L241.24000366210942,39.89999938964844 L241.24000366210942,39.89999938964844 Q238.65000366210938,41.97999938964844 236.60000366210937,43.44999938964844 L236.60000366210937,43.44999938964844 L236.60000366210937,43.44999938964844 Q231.68000366210936,46.969999389648436 230.4600036621094,46.969999389648436 L230.4600036621094,46.969999389648436 L230.4600036621094,46.969999389648436 Q229.24000366210942,46.969999389648436 228.73000366210937,46.19999938964844 L228.73000366210937,46.19999938964844 L228.73000366210937,46.19999938964844 Q228.22000366210938,45.439999389648435 228.22000366210938,43.44999938964844 zM221.69000366210935,40.75999938964844 L221.69000366210935,40.75999938964844 L221.69000366210935,40.75999938964844 Q222.4600036621094,40.75999938964844 226.40000366210938,37.62999938964843 L226.40000366210938,37.62999938964843 L226.40000366210938,37.62999938964843 Q230.33000366210933,34.48999938964843 233.85000366210937,31.359999389648436 L233.85000366210937,31.359999389648436 L237.44000366210935,28.219999389648436 L237.44000366210935,28.219999389648436 Q237.69000366210935,27.95999938964843 237.69000366210935,27.86999938964844 L237.69000366210935,27.86999938964844 L237.69000366210935,27.86999938964844 Q237.69000366210935,27.769999389648433 237.5000036621094,27.769999389648433 L237.5000036621094,27.769999389648433 L237.5000036621094,27.769999389648433 Q235.07000366210934,27.769999389648433 231.16000366210938,30.55999938964844 L231.16000366210938,30.55999938964844 L231.16000366210938,30.55999938964844 Q227.2600036621094,33.33999938964844 224.41000366210938,36.439999389648435 L224.41000366210938,36.439999389648435 L224.41000366210938,36.439999389648435 Q221.56000366210935,39.549999389648434 221.56000366210935,40.63999938964844 L221.56000366210935,40.63999938964844 L221.56000366210935,40.63999938964844 Q221.56000366210935,40.75999938964844 221.69000366210935,40.75999938964844 zM250.36000366210936,41.91999938964844 L250.36000366210936,41.91999938964844 L250.36000366210936,41.91999938964844 Q252.48000366210937,41.91999938964844 258.7200036621094,38.13999938964844 L258.7200036621094,38.13999938964844 L258.7200036621094,38.13999938964844 Q264.9600036621094,34.359999389648436 270.0800036621094,30.58999938964844 L270.0800036621094,30.58999938964844 L275.2600036621094,26.80999938964844 L275.2600036621094,26.80999938964844 Q275.8400036621094,27.259999389648442 275.8400036621094,27.899999389648443 L275.8400036621094,27.899999389648443 L275.8400036621094,27.899999389648443 Q275.8400036621094,28.539999389648443 275.2000036621094,29.11999938964844 L275.2000036621094,29.11999938964844 L275.2000036621094,29.11999938964844 Q274.56000366210935,29.689999389648435 273.37000366210935,30.779999389648438 L273.37000366210935,30.779999389648438 L273.37000366210935,30.779999389648438 Q272.19000366210935,31.86999938964844 268.86000366210936,34.67999938964843 L268.86000366210936,34.67999938964843 L268.86000366210936,34.67999938964843 Q265.5300036621094,37.49999938964844 262.6500036621094,39.799999389648434 L262.6500036621094,39.799999389648434 L262.6500036621094,39.799999389648434 Q255.10000366210937,45.87999938964843 251.5200036621094,46.969999389648436 L251.5200036621094,46.969999389648436 L251.5200036621094,46.969999389648436 Q250.36000366210936,47.28999938964844 249.15000366210938,47.28999938964844 L249.15000366210938,47.28999938964844 L249.15000366210938,47.28999938964844 Q247.93000366210936,47.28999938964844 247.23000366210937,47.09999938964843 L247.23000366210937,47.09999938964843 L247.23000366210937,47.09999938964843 Q246.5200036621094,46.90999938964843 245.69000366210935,46.26999938964843 L245.69000366210935,46.26999938964843 L245.69000366210935,46.26999938964843 Q244.03000366210938,44.859999389648436 244.03000366210938,39.99999938964844 L244.03000366210938,39.99999938964844 L244.03000366210938,39.99999938964844 Q244.03000366210938,38.64999938964844 245.18000366210936,35.89999938964844 L245.18000366210936,35.89999938964844 L245.18000366210936,35.89999938964844 Q246.33000366210933,33.14999938964844 248.99000366210942,29.239999389648432 L248.99000366210942,29.239999389648432 L248.99000366210942,29.239999389648432 Q251.6400036621094,25.33999938964844 255.20000366210934,21.439999389648435 L255.20000366210934,21.439999389648435 L255.20000366210934,21.439999389648435 Q258.7500036621094,17.529999389648438 264.2200036621094,13.629999389648447 L264.2200036621094,13.629999389648447 L264.2200036621094,13.629999389648447 Q269.69000366210935,9.719999389648436 275.9000036621094,7.289999389648443 L275.9000036621094,7.289999389648443 L275.9000036621094,7.289999389648443 Q276.86000366210936,6.969999389648436 277.6300036621094,6.969999389648436 L277.6300036621094,6.969999389648436 L277.6300036621094,6.969999389648436 Q278.4000036621094,6.969999389648436 279.04000366210937,7.6399993896484375 L279.04000366210937,7.6399993896484375 L279.04000366210937,7.6399993896484375 Q279.68000366210936,8.319999389648444 279.93000366210936,9.019999389648433 L279.93000366210936,9.019999389648433 L280.25000366210935,9.659999389648448 L280.25000366210935,9.659999389648448 Q280.25000366210935,11.129999389648447 275.7100036621094,16.11999938964844 L275.7100036621094,16.11999938964844 L275.7100036621094,16.11999938964844 Q271.04000366210937,21.30999938964844 264.92000366210937,26.009999389648442 L264.92000366210937,26.009999389648442 L264.92000366210937,26.009999389648442 Q258.81000366210935,30.719999389648436 253.56000366210935,34.03999938964844 L253.56000366210935,34.03999938964844 L253.56000366210935,34.03999938964844 Q249.28000366210938,36.859999389648436 249.28000366210938,39.929999389648444 L249.28000366210938,39.929999389648444 L249.28000366210938,39.929999389648444 Q249.28000366210938,41.91999938964844 250.36000366210936,41.91999938964844 zM256.1200036621094,28.66999938964844 L256.1200036621094,28.66999938964844 L256.1200036621094,28.66999938964844 Q257.7200036621094,28.66999938964844 265.8200036621094,20.799999389648434 L265.8200036621094,20.799999389648434 L265.8200036621094,20.799999389648434 Q273.92000366210937,12.919999389648439 273.92000366210937,12.029999389648438 L273.92000366210937,12.029999389648438 L273.8500036621094,11.899999389648428 L272.7600036621094,12.409999389648448 L272.7600036621094,12.409999389648448 Q269.44000366210935,14.58999938964844 263.9000036621094,19.83999938964844 L263.9000036621094,19.83999938964844 L263.9000036621094,19.83999938964844 Q258.36000366210936,25.079999389648435 256.2500036621094,28.029999389648438 L256.2500036621094,28.029999389648438 L256.2500036621094,28.029999389648438 Q256.0000036621094,28.349999389648445 256.0000036621094,28.509999389648442 L256.0000036621094,28.509999389648442 L256.0000036621094,28.509999389648442 Q256.0000036621094,28.66999938964844 256.1200036621094,28.66999938964844 zM271.42000366210937,41.91999938964844 L271.42000366210937,41.91999938964844 L271.42000366210937,41.91999938964844 Q273.5300036621094,41.91999938964844 279.7700036621094,38.13999938964844 L279.7700036621094,38.13999938964844 L279.7700036621094,38.13999938964844 Q286.0100036621094,34.359999389648436 291.1300036621094,30.58999938964844 L291.1300036621094,30.58999938964844 L296.3200036621094,26.80999938964844 L296.3200036621094,26.80999938964844 Q296.8900036621094,27.259999389648442 296.8900036621094,27.899999389648443 L296.8900036621094,27.899999389648443 L296.8900036621094,27.899999389648443 Q296.8900036621094,28.539999389648443 296.25000366210935,29.11999938964844 L296.25000366210935,29.11999938964844 L296.25000366210935,29.11999938964844 Q295.61000366210936,29.689999389648435 294.43000366210936,30.779999389648438 L294.43000366210936,30.779999389648438 L294.43000366210936,30.779999389648438 Q293.24000366210936,31.86999938964844 289.92000366210937,34.67999938964843 L289.92000366210937,34.67999938964843 L289.92000366210937,34.67999938964843 Q286.5900036621094,37.49999938964844 283.7100036621094,39.799999389648434 L283.7100036621094,39.799999389648434 L283.7100036621094,39.799999389648434 Q276.1600036621094,45.87999938964843 272.5700036621094,46.969999389648436 L272.5700036621094,46.969999389648436 L272.5700036621094,46.969999389648436 Q271.42000366210937,47.28999938964844 270.2000036621094,47.28999938964844 L270.2000036621094,47.28999938964844 L270.2000036621094,47.28999938964844 Q268.99000366210936,47.28999938964844 268.2800036621094,47.09999938964843 L268.2800036621094,47.09999938964843 L268.2800036621094,47.09999938964843 Q267.5800036621094,46.90999938964843 266.75000366210935,46.26999938964843 L266.75000366210935,46.26999938964843 L266.75000366210935,46.26999938964843 Q265.08000366210933,44.859999389648436 265.08000366210933,39.99999938964844 L265.08000366210933,39.99999938964844 L265.08000366210933,39.99999938964844 Q265.08000366210933,38.64999938964844 266.24000366210936,35.89999938964844 L266.24000366210936,35.89999938964844 L266.24000366210936,35.89999938964844 Q267.3900036621094,33.14999938964844 270.04000366210937,29.239999389648432 L270.04000366210937,29.239999389648432 L270.04000366210937,29.239999389648432 Q272.7000036621094,25.33999938964844 276.25000366210935,21.439999389648435 L276.25000366210935,21.439999389648435 L276.25000366210935,21.439999389648435 Q279.80000366210936,17.529999389648438 285.2800036621094,13.629999389648447 L285.2800036621094,13.629999389648447 L285.2800036621094,13.629999389648447 Q290.75000366210935,9.719999389648436 296.9600036621094,7.289999389648443 L296.9600036621094,7.289999389648443 L296.9600036621094,7.289999389648443 Q297.92000366210937,6.969999389648436 298.68000366210936,6.969999389648436 L298.68000366210936,6.969999389648436 L298.68000366210936,6.969999389648436 Q299.4500036621094,6.969999389648436 300.0900036621094,7.6399993896484375 L300.0900036621094,7.6399993896484375 L300.0900036621094,7.6399993896484375 Q300.73000366210937,8.319999389648444 300.99000366210936,9.019999389648433 L300.99000366210936,9.019999389648433 L301.31000366210935,9.659999389648448 L301.31000366210935,9.659999389648448 Q301.31000366210935,11.129999389648447 296.7600036621094,16.11999938964844 L296.7600036621094,16.11999938964844 L296.7600036621094,16.11999938964844 Q292.0900036621094,21.30999938964844 285.98000366210937,26.009999389648442 L285.98000366210937,26.009999389648442 L285.98000366210937,26.009999389648442 Q279.87000366210935,30.719999389648436 274.62000366210935,34.03999938964844 L274.62000366210935,34.03999938964844 L274.62000366210935,34.03999938964844 Q270.3300036621094,36.859999389648436 270.3300036621094,39.929999389648444 L270.3300036621094,39.929999389648444 L270.3300036621094,39.929999389648444 Q270.3300036621094,41.91999938964844 271.42000366210937,41.91999938964844 zM277.18000366210936,28.66999938964844 L277.18000366210936,28.66999938964844 L277.18000366210936,28.66999938964844 Q278.7800036621094,28.66999938964844 286.8800036621094,20.799999389648434 L286.8800036621094,20.799999389648434 L286.8800036621094,20.799999389648434 Q294.9700036621094,12.919999389648439 294.9700036621094,12.029999389648438 L294.9700036621094,12.029999389648438 L294.9100036621094,11.899999389648428 L293.8200036621094,12.409999389648448 L293.8200036621094,12.409999389648448 Q290.49000366210936,14.58999938964844 284.9600036621094,19.83999938964844 L284.9600036621094,19.83999938964844 L284.9600036621094,19.83999938964844 Q279.42000366210937,25.079999389648435 277.31000366210935,28.029999389648438 L277.31000366210935,28.029999389648438 L277.31000366210935,28.029999389648438 Q277.05000366210936,28.349999389648445 277.05000366210936,28.509999389648442 L277.05000366210936,28.509999389648442 L277.05000366210936,28.509999389648442 Q277.05000366210936,28.66999938964844 277.18000366210936,28.66999938964844 zM303.74000366210936,26.80999938964844 L303.74000366210936,26.80999938964844 L303.74000366210936,26.80999938964844 Q302.0800036621094,26.80999938964844 298.11000366210936,30.239999389648432 L298.11000366210936,30.239999389648432 L298.11000366210936,30.239999389648432 Q294.1400036621094,33.65999938964843 294.1400036621094,34.42999938964843 L294.1400036621094,34.42999938964843 L294.1400036621094,34.42999938964843 Q294.1400036621094,34.55999938964844 294.3300036621094,34.55999938964844 L294.3300036621094,34.55999938964844 L294.3300036621094,34.55999938964844 Q295.74000366210936,34.55999938964844 299.93000366210936,31.41999938964844 L299.93000366210936,31.41999938964844 L299.93000366210936,31.41999938964844 Q304.12000366210935,28.279999389648438 304.12000366210935,27.129999389648432 L304.12000366210935,27.129999389648432 L304.12000366210935,27.129999389648432 Q304.12000366210935,26.80999938964844 303.74000366210936,26.80999938964844 zM290.11000366210936,47.28999938964844 L290.11000366210936,47.28999938964844 L290.11000366210936,47.28999938964844 Q285.18000366210936,47.28999938964844 285.18000366210936,41.27999938964844 L285.18000366210936,41.27999938964844 L285.18000366210936,41.27999938964844 Q285.18000366210936,37.49999938964844 288.48000366210937,33.23999938964843 L288.48000366210937,33.23999938964843 L288.48000366210937,33.23999938964843 Q291.7700036621094,28.989999389648432 296.25000366210935,26.269999389648433 L296.25000366210935,26.269999389648433 L296.25000366210935,26.269999389648433 Q300.73000366210937,23.549999389648434 304.19000366210935,23.549999389648434 L304.19000366210935,23.549999389648434 L304.19000366210935,23.549999389648434 Q305.7200036621094,23.549999389648434 307.04000366210937,24.759999389648442 L307.04000366210937,24.759999389648442 L307.04000366210937,24.759999389648442 Q308.3500036621094,25.97999938964844 308.3500036621094,27.129999389648432 L308.3500036621094,27.129999389648432 L308.3500036621094,27.129999389648432 Q308.3500036621094,29.239999389648432 305.3400036621094,31.899999389648443 L305.3400036621094,31.899999389648443 L305.3400036621094,31.899999389648443 Q302.3300036621094,34.55999938964844 299.04000366210937,36.189999389648435 L299.04000366210937,36.189999389648435 L299.04000366210937,36.189999389648435 Q295.74000366210936,37.819999389648444 294.68000366210936,37.819999389648444 L294.68000366210936,37.819999389648444 L294.68000366210936,37.819999389648444 Q293.6300036621094,37.819999389648444 293.12000366210935,36.859999389648436 L293.12000366210935,36.859999389648436 L293.12000366210935,36.859999389648436 Q292.86000366210936,36.66999938964844 292.4100036621094,36.66999938964844 L292.4100036621094,36.66999938964844 L292.4100036621094,36.66999938964844 Q291.9600036621094,36.66999938964844 290.94000366210935,38.359999389648436 L290.94000366210935,38.359999389648436 L290.94000366210935,38.359999389648436 Q289.92000366210937,40.05999938964844 289.92000366210937,41.11999938964844 L289.92000366210937,41.11999938964844 L289.92000366210937,41.11999938964844 Q289.92000366210937,42.16999938964844 290.68000366210936,42.429999389648444 L290.68000366210936,42.429999389648444 L290.68000366210936,42.429999389648444 Q295.55000366210936,42.429999389648444 301.24000366210936,39.579999389648435 L301.24000366210936,39.579999389648435 L301.24000366210936,39.579999389648435 Q306.94000366210935,36.72999938964844 316.99000366210936,29.55999938964844 L316.99000366210936,29.55999938964844 L316.99000366210936,29.55999938964844 Q317.69000366210935,29.049999389648434 319.1300036621094,28.029999389648438 L319.1300036621094,28.029999389648438 L319.1300036621094,28.029999389648438 Q320.5700036621094,26.999999389648437 320.8300036621094,26.80999938964844 L320.8300036621094,26.80999938964844 L320.8300036621094,26.80999938964844 Q321.4000036621094,27.259999389648442 321.4000036621094,27.899999389648443 L321.4000036621094,27.899999389648443 L321.4000036621094,27.899999389648443 Q321.4000036621094,28.539999389648443 320.8300036621094,29.049999389648434 L320.8300036621094,29.049999389648434 L320.8300036621094,29.049999389648434 Q317.6300036621094,32.24999938964844 312.54000366210937,36.219999389648436 L312.54000366210937,36.219999389648436 L312.54000366210937,36.219999389648436 Q307.4500036621094,40.189999389648435 300.86000366210936,43.73999938964843 L300.86000366210936,43.73999938964843 L300.86000366210936,43.73999938964843 Q294.2700036621094,47.28999938964844 290.11000366210936,47.28999938964844 zM310.1400036621094,34.16999938964844 L310.1400036621094,34.16999938964844 L310.1400036621094,34.16999938964844 Q313.6600036621094,31.739999389648432 317.50000366210935,28.91999938964844 L317.50000366210935,28.91999938964844 L317.50000366210935,28.91999938964844 Q315.4500036621094,27.519999389648433 314.8800036621094,26.16999938964844 L314.8800036621094,26.16999938964844 L314.8800036621094,26.16999938964844 Q314.68000366210936,25.719999389648436 314.68000366210936,25.529999389648438 L314.68000366210936,25.529999389648438 L314.68000366210936,25.529999389648438 Q314.68000366210936,24.249999389648437 315.5200036621094,23.83999938964844 L315.5200036621094,23.83999938964844 L315.5200036621094,23.83999938964844 Q316.3500036621094,23.41999938964844 318.2000036621094,23.41999938964844 L318.2000036621094,23.41999938964844 L318.2000036621094,23.41999938964844 Q318.9100036621094,23.41999938964844 322.36000366210936,25.149999389648443 L322.36000366210936,25.149999389648443 L322.36000366210936,25.149999389648443 Q325.8200036621094,26.879999389648432 326.75000366210935,26.879999389648432 L326.75000366210935,26.879999389648432 L326.75000366210935,26.879999389648432 Q327.68000366210936,26.879999389648432 329.3400036621094,26.329999389648435 L329.3400036621094,26.329999389648435 L329.3400036621094,26.329999389648435 Q331.00000366210935,25.789999389648443 332.00000366210935,25.789999389648443 L332.00000366210935,25.789999389648443 L332.00000366210935,25.789999389648443 Q332.99000366210936,25.789999389648443 333.44000366210935,26.239999389648432 L333.44000366210935,26.239999389648432 L333.44000366210935,26.239999389648432 Q335.04000366210937,28.349999389648445 335.04000366210937,28.799999389648434 L335.04000366210937,28.799999389648434 L335.04000366210937,28.799999389648434 Q335.04000366210937,29.239999389648432 334.62000366210935,29.529999389648438 L334.62000366210935,29.529999389648438 L334.62000366210935,29.529999389648438 Q334.2000036621094,29.819999389648444 332.00000366210935,31.359999389648436 L332.00000366210935,31.359999389648436 L332.00000366210935,31.359999389648436 Q329.79000366210937,32.88999938964844 327.68000366210936,34.48999938964843 L327.68000366210936,34.48999938964843 L327.68000366210936,34.48999938964843 Q325.56000366210935,36.08999938964844 323.7100036621094,38.079999389648435 L323.7100036621094,38.079999389648435 L323.7100036621094,38.079999389648435 Q321.8500036621094,40.05999938964844 321.8500036621094,41.27999938964844 L321.8500036621094,41.27999938964844 L321.8500036621094,41.27999938964844 Q321.8500036621094,41.469999389648436 322.17000366210937,41.469999389648436 L322.17000366210937,41.469999389648436 L322.17000366210937,41.469999389648436 Q325.6300036621094,41.469999389648436 345.4700036621094,27.44999938964844 L345.4700036621094,27.44999938964844 L345.4700036621094,27.44999938964844 Q345.92000366210937,27.44999938964844 345.92000366210937,28.249999389648437 L345.92000366210937,28.249999389648437 L345.92000366210937,28.249999389648437 Q345.92000366210937,29.049999389648434 340.86000366210936,33.75999938964844 L340.86000366210936,33.75999938964844 L340.86000366210936,33.75999938964844 Q335.80000366210936,38.45999938964843 329.44000366210935,42.969999389648436 L329.44000366210935,42.969999389648436 L329.44000366210935,42.969999389648436 Q323.0700036621094,47.47999938964844 320.19000366210935,47.47999938964844 L320.19000366210935,47.47999938964844 L320.19000366210935,47.47999938964844 Q315.7100036621094,47.47999938964844 315.7100036621094,42.99999938964844 L315.7100036621094,42.99999938964844 L315.7100036621094,42.99999938964844 Q315.7100036621094,40.569999389648444 317.3400036621094,38.299999389648434 L317.3400036621094,38.299999389648434 L317.3400036621094,38.299999389648434 Q318.9700036621094,36.02999938964844 324.2200036621094,32.189999389648435 L324.2200036621094,32.189999389648435 L324.2200036621094,32.189999389648435 Q323.1300036621094,32.189999389648435 321.2800036621094,31.639999389648438 L321.2800036621094,31.639999389648438 L321.2800036621094,31.639999389648438 Q319.42000366210937,31.099999389648445 318.9100036621094,30.329999389648435 L318.9100036621094,30.329999389648435 L318.9100036621094,30.329999389648435 Q317.24000366210936,31.799999389648434 313.1500036621094,35.25999938964844 L313.1500036621094,35.25999938964844 L313.1500036621094,35.25999938964844 Q312.19000366210935,35.95999938964843 310.6500036621094,35.95999938964843 L310.6500036621094,35.95999938964843 L310.6500036621094,35.95999938964843 Q309.12000366210935,35.95999938964843 309.12000366210935,35.47999938964844 L309.12000366210935,35.47999938964844 L309.12000366210935,35.47999938964844 Q309.12000366210935,34.99999938964844 310.1400036621094,34.16999938964844 zM358.5900036621094,25.469999389648436 L358.5900036621094,25.469999389648436 L358.5900036621094,25.469999389648436 Q361.6000036621094,25.789999389648443 361.6000036621094,26.80999938964844 L361.6000036621094,26.80999938964844 L361.6000036621094,26.80999938964844 Q361.6000036621094,27.259999389648442 361.0800036621094,27.83999938964844 L361.0800036621094,27.83999938964844 L361.0800036621094,27.83999938964844 Q352.06000366210935,37.87999938964843 340.3500036621094,53.439999389648435 L340.3500036621094,53.439999389648435 L340.3500036621094,53.439999389648435 Q336.9600036621094,58.03999938964844 333.44000366210935,62.13999938964844 L333.44000366210935,62.13999938964844 L333.44000366210935,62.13999938964844 Q329.92000366210937,66.23999938964843 326.8400036621094,68.11999938964843 L326.8400036621094,68.11999938964843 L326.8400036621094,68.11999938964843 Q323.7700036621094,70.00999938964844 320.44000366210935,70.00999938964844 L320.44000366210935,70.00999938964844 L320.44000366210935,70.00999938964844 Q318.7800036621094,70.00999938964844 317.50000366210935,69.11999938964843 L317.50000366210935,69.11999938964843 L317.50000366210935,69.11999938964843 Q316.2200036621094,68.21999938964842 316.2200036621094,66.67999938964843 L316.2200036621094,66.67999938964843 L316.2200036621094,66.67999938964843 Q316.2200036621094,63.099999389648445 319.68000366210936,59.25999938964844 L319.68000366210936,59.25999938964844 L319.68000366210936,59.25999938964844 Q323.1300036621094,55.41999938964844 327.42000366210937,53.01999938964843 L327.42000366210937,53.01999938964843 L327.42000366210937,53.01999938964843 Q331.7100036621094,50.61999938964844 334.8400036621094,50.23999938964843 L334.8400036621094,50.23999938964843 L336.19000366210935,50.429999389648444 L336.19000366210935,50.429999389648444 Q336.8300036621094,50.359999389648436 340.8900036621094,45.49999938964844 L340.8900036621094,45.49999938964844 L340.8900036621094,45.49999938964844 Q344.9600036621094,40.63999938964844 344.99000366210936,40.34999938964843 L344.99000366210936,40.34999938964843 L344.99000366210936,40.34999938964843 Q345.0200036621094,40.05999938964844 344.8900036621094,40.05999938964844 L344.8900036621094,40.05999938964844 L343.68000366210936,41.01999938964843 L343.68000366210936,41.01999938964843 Q338.8800036621094,45.49999938964844 336.19000366210935,45.49999938964844 L336.19000366210935,45.49999938964844 L336.19000366210935,45.49999938964844 Q334.4600036621094,45.49999938964844 334.4600036621094,43.069999389648444 L334.4600036621094,43.069999389648444 L334.4600036621094,43.069999389648444 Q334.4600036621094,39.799999389648434 339.7700036621094,32.75999938964844 L339.7700036621094,32.75999938964844 L339.7700036621094,32.75999938964844 Q345.0800036621094,25.719999389648436 347.5800036621094,25.719999389648436 L347.5800036621094,25.719999389648436 L347.5800036621094,25.719999389648436 Q347.7700036621094,25.719999389648436 348.0300036621094,25.849999389648445 L348.0300036621094,25.849999389648445 L348.0300036621094,25.849999389648445 Q349.8200036621094,26.299999389648434 349.8200036621094,27.129999389648432 L349.8200036621094,27.129999389648432 L349.8200036621094,27.129999389648432 Q349.8200036621094,27.44999938964844 349.6600036621094,27.609999389648436 L349.6600036621094,27.609999389648436 L349.6600036621094,27.609999389648436 Q349.50000366210935,27.769999389648433 348.3800036621094,28.859999389648436 L348.3800036621094,28.859999389648436 L348.3800036621094,28.859999389648436 Q347.2600036621094,29.94999938964844 346.17000366210937,31.129999389648432 L346.17000366210937,31.129999389648432 L346.17000366210937,31.129999389648432 Q345.0800036621094,32.319999389648444 343.87000366210935,33.719999389648436 L343.87000366210935,33.719999389648436 L343.87000366210935,33.719999389648436 Q341.12000366210935,36.91999938964844 341.12000366210935,38.51999938964843 L341.12000366210935,38.51999938964843 L341.12000366210935,38.51999938964843 Q341.12000366210935,38.90999938964843 341.5300036621094,38.90999938964843 L341.5300036621094,38.90999938964843 L341.5300036621094,38.90999938964843 Q341.9500036621094,38.90999938964843 343.1000036621094,38.19999938964844 L343.1000036621094,38.19999938964844 L343.1000036621094,38.19999938964844 Q352.19000366210935,31.999999389648437 357.31000366210935,26.359999389648436 L357.31000366210935,26.359999389648436 L357.31000366210935,26.359999389648436 Q357.7600036621094,25.469999389648436 358.5900036621094,25.469999389648436 zM319.55000366210936,67.19999938964844 L319.55000366210936,67.19999938964844 L319.55000366210936,67.19999938964844 Q321.79000366210937,66.48999938964843 325.56000366210935,62.80999938964845 L325.56000366210935,62.80999938964845 L325.56000366210935,62.80999938964845 Q329.3400036621094,59.12999938964843 332.0300036621094,55.86999938964844 L332.0300036621094,55.86999938964844 L334.7200036621094,52.53999938964844 L334.7200036621094,52.53999938964844 Q335.1000036621094,52.02999938964844 335.1000036621094,51.89999938964844 L335.1000036621094,51.89999938964844 L335.1000036621094,51.89999938964844 Q335.1000036621094,51.76999938964843 334.9100036621094,51.76999938964843 L334.9100036621094,51.76999938964843 L334.9100036621094,51.76999938964843 Q332.86000366210936,51.76999938964843 329.05000366210936,54.90999938964843 L329.05000366210936,54.90999938964843 L329.05000366210936,54.90999938964843 Q325.24000366210936,58.03999938964844 322.2700036621094,61.75999938964844 L322.2700036621094,61.75999938964844 L322.2700036621094,61.75999938964844 Q319.29000366210937,65.46999938964842 319.29000366210937,66.99999938964845 L319.29000366210937,66.99999938964845 L319.29000366210937,66.99999938964845 Q319.29000366210937,67.19999938964844 319.55000366210936,67.19999938964844 z" fill="url(#editing-gradient-gradient)" id="svg_3"/></g></g></g></svg>